<svg xmlns="http://www.w3.org/2000/svg" xmlns:xlink="http://www.w3.org/1999/xlink" id="Layer_1" x="0px" y="0px" viewBox="0 0 970.1 892.7" style="enable-background:new 0 0 970.1 892.7;" xml:space="preserve">
<style type="text/css">
	.st0{fill:#F9A701;}
	.st1{fill:#3B596D;}
	.st2{fill:#1A68AD;}
	.st3{fill:#364456;}
	.st4{fill:#141732;}
	.st5{fill:#AFBAC9;}
	.st6{fill:#EDB7B9;}
	.st7{fill:#3C3E6C;}
	.st8{fill:#2B6DFE;}
	.st9{fill:#61869B;}
	.st10{fill:#4B4E84;}
	.st11{fill:#7579BF;}
	.st12{fill:#FFFFFF;}
</style>
<g>
	<g>
		<path class="st0" d="M576.1,238.3c0.1-23.1,0.1-46.3,0.2-69.4c0-12.5,0.1-25-0.1-37.4c0-2.8,1.1-4.2,3.2-6    c7.6-6.2,14-5.2,22.5-0.2c45.8,27.1,92,53.5,138.2,80c3.1,1.8,4.4,3.6,4.4,7.3c-0.2,42.1-0.1,84.2,0,126.3c0,3.5-1.4,5-4,7.1    c-7.3,5.8-13.3,4.9-21.2,0.1c-26.7-16.2-54-31.5-81.1-47.1c-1.7-1-3.4-3.2-5.6-0.5c-5.3,4.3-10.6,8.6-15.9,12.9    c-5.5,3.3-11,6.6-17,10.2c0-14.3-0.1-27.6,0.1-40.9c0-2.8-0.8-4.5-3.3-5.9c-6.7-3.6-13.3-7.5-19.9-11.4    C576.4,255,576.3,246.6,576.1,238.3z M646,278.8c-0.4,6.3,0.5,11.5,5.9,14.6c1.9,1.1,3.8,3.2,6.3,2c2.8-1.4,2.4-4.3,2-6.7    c-0.8-5,1.3-6.3,5.9-5.7c1.9,0.2,3,0.7,3.8,2.4c1.4,2.8,2.9,5.6,4.7,8.2c1.2,1.8,3,3.6,5.4,2.4c2.2-1.1,4.5-2.4,4.7-5.3    c0.2-2.2-0.2-4.3-1.2-6.3c-1.2-2.4-2.4-4.8-3.7-7.1c-2.4-4,1.1-7,2.3-10c0.9-2.3,3.4,1,5.2,1.7c2.2,0.9,4.3,2.5,6-0.5    c2.4-4.1,0.4-15.3-4.1-17.3c-6.5-2.9-7.9-8.1-9.5-13.9c-0.7-2.5-1-4.3,1.7-5.8c4.1-2.2,4-5.8,2.6-9.5c-1-2.6-2.3-5.1-3.8-7.6    c-2.8-4.6-4.9-5.1-9.1-2c-1.9,1.4-2.8,1.3-4.4-0.5c-4.1-4.5-7.6-8.8-6.6-15.7c0.6-4.3-1.6-8.2-5.6-10.4c-2.1-1.2-4-3.7-6.7-2.1    c-2.6,1.5-2.3,4.4-1.9,6.8c0.9,5.2-1.4,6.1-5.9,5.7c-2-0.2-3-0.8-3.8-2.5c-1.4-2.8-2.9-5.6-4.6-8.2c-1.2-1.8-2.9-3.6-5.4-2.5    c-2.4,1.1-4.8,2.6-4.9,5.7c-0.1,2,0.3,4,1.2,5.8c1.2,2.4,2.3,4.8,3.7,7.1c2.4,4-1,7.1-2.2,10c-1,2.4-3.5-0.8-5.2-1.6    c-2.5-1.1-4.7-2.4-6.1,1c-2.1,4.9-0.2,14.7,4.4,16.8c6.6,2.9,7.9,8.2,9.4,14c0.7,2.6,0.7,4.3-1.9,5.8c-3.8,2.1-3.9,5.6-2.6,9.1    c1.1,2.9,2.7,5.7,4.3,8.4c2.2,3.5,5,4.8,8.6,1.6c0.9-0.8,2.3-2.6,3.3-1C641,270.3,647.6,272.7,646,278.8z"></path>
		<path class="st0" d="M225,508.6c-5-3.1-12.2-4.6-14.7-9.5c-2.4-4.6-0.7-11.3-0.8-17.1c-0.1-4.1-0.2-8.2-0.3-12.4    c0.6-23.8,0.3-47.6,0.2-71.4c0.8-14,0.2-28,0.3-42c0-0.6-0.5-1.2-0.8-1.8c1.3-0.9,1.2-2.2,1.2-3.6c-0.1-13.3-0.1-26.7-0.2-40    c0-2.3,0.1-4.6,0.1-6.9c38.3,22.1,76.7,44.1,115,66.2c0.1,1.8,0.2,3.7,0.2,5.5c0,54.7,0,109.3,0,164c0,8.8-0.1,17.6-0.2,26.4    c-30.5-17.6-61-35.1-91.5-52.7C231.7,510,229.1,508.1,225,508.6z M262.6,364.7c-0.9,0-1.5,0.5-1.8,1.4c-0.6,1.7-0.2,3.3,0.7,4.7    c2.1,3.2,5.9,4.1,8.9,6.2c1,0.7,2.1,1.3,3.2,0.3c0.9-0.9,0.8-2.1,0.6-3.3C273.8,371.5,265.3,364.6,262.6,364.7z M293.4,513.7    c-0.1-2.1-0.7-3.8-2.3-4.9c-2-1.4-4.2-2.7-6.4-3.8c-1.3-0.7-2.7-2.7-4.3-1c-1.5,1.7-0.9,3.9,0.3,5.5c2.5,3.5,6.6,4.9,10.2,6.7    C292.9,517.1,293.3,515.1,293.4,513.7z M255.1,364c-0.1-3.3-1.6-4.9-8.3-8.6c-1.4-0.8-2.9-3.1-4.7-1c-1.6,2-0.7,4.3,0.7,5.9    c2.5,3,6.2,4.4,9.6,6.1C254.8,367.6,255,365.4,255.1,364z M293.4,401.9c-0.1-2.1-0.8-3.8-2.3-4.9c-2-1.4-4.2-2.7-6.4-3.8    c-1.3-0.7-2.7-2.7-4.3-0.9c-1.5,1.7-0.9,3.9,0.3,5.5c2.6,3.5,6.6,4.9,10.3,6.6C292.9,405.3,293.3,403.3,293.4,401.9z M300.7,386.8    c-0.9,0.1-1.5,0.6-1.7,1.5c-0.4,1.9-0.1,3.7,1.1,5.2c2.2,2.6,5.5,3.6,8.2,5.4c0.9,0.6,1.9,1.6,3.1,0.7c1.2-0.9,1.1-2.3,0.9-3.6    C311.9,393.4,303.2,386.6,300.7,386.8z M236.1,352.9c-0.1-2.1-0.8-3.8-2.3-4.9c-2-1.4-4.2-2.7-6.4-3.8c-1.3-0.7-2.7-2.7-4.3-0.9    c-1.6,1.8-0.8,3.9,0.3,5.5c2.5,3.5,6.6,4.9,10.3,6.7C235.7,356.4,235.9,354.3,236.1,352.9z M255.1,395.6c-0.1-1.8-0.7-3.6-2.3-4.7    c-2-1.4-4.2-2.7-6.4-3.8c-1.3-0.7-2.7-2.7-4.3-1c-1.6,1.7-0.9,3.9,0.3,5.5c2.5,3.5,6.6,4.9,10.2,6.7    C254.7,399.2,255,397.2,255.1,395.6z M312.5,413c-0.2-2-0.7-3.8-2.2-4.9c-1.9-1.4-3.8-2.6-5.9-3.6c-1.6-0.7-3.3-3.4-5.1-0.9    c-1.3,1.9-0.5,4.3,1.1,6c2.7,2.8,6.2,4.4,9.7,5.9C312,416.4,312.3,414.4,312.5,413z M255.1,379.8c-0.1-2.1-0.7-3.8-2.3-4.9    c-2-1.4-4.2-2.7-6.4-3.8c-1.3-0.7-2.7-2.7-4.3-0.9c-1.6,1.7-0.8,3.9,0.3,5.5c2.5,3.5,6.6,4.9,10.3,6.7    C254.7,383.3,255.1,381.3,255.1,379.8z M223.9,374.5c-2.3,1-1.9,2.9-1.1,4.9c1.7,4.4,6.2,5.2,9.6,7.4c3.1,2,3.8-0.1,3.6-2.7    C235.8,381.3,227,374.2,223.9,374.5z M274.2,406.8c-0.3-5.3-4.5-6.4-7.9-8.3c-1.6-0.9-3.5-3.9-5.3-0.9c-1.5,2.3-0.2,5,1.9,6.6    c2.5,1.9,5.3,3.4,8.1,4.8C273.5,410.3,274.2,408.7,274.2,406.8z M274.2,502.6c-0.1-2-0.8-3.7-2.3-4.8c-2-1.4-4.2-2.7-6.4-3.8    c-1.3-0.7-2.7-2.7-4.3-0.9c-1.4,1.5-0.8,3.6,0.1,5.1c2.4,3.8,6.7,5.2,10.5,7C273.8,506.1,274.2,504,274.2,502.6z M236,400.5    c-0.1-2.1-0.8-3.8-2.3-4.9c-2-1.4-4.2-2.7-6.4-3.8c-1.3-0.7-2.7-2.6-4.3-0.8c-1.4,1.6-0.8,3.6,0.2,5.1c2.5,3.8,6.8,5.2,10.6,7.1    C235.7,404.1,235.9,401.9,236,400.5z M243.9,481.3c-2.8,0.5-2.7,2.3-2.3,4.1c1.1,4.8,5.8,5.5,9.1,7.8c1,0.7,2.3,1.8,3.6,0.8    c1.5-1.3,1.1-3.1,0.4-4.6C252.5,484.7,247.4,484,243.9,481.3z M255.1,411.8c0-2.1-0.6-3.9-2.2-5c-2-1.4-4.1-2.7-6.3-3.9    c-1.4-0.7-2.9-3-4.6-0.7c-1.4,1.8-0.5,4,0.7,5.5c2.5,3.2,6.4,4.6,9.9,6.4C254.6,415.1,255,413.2,255.1,411.8z M281.3,375.7    c-2.7,1.7-1.8,4.1-0.5,6.2c1.9,3.1,5.6,4,8.4,5.9c0.9,0.6,1.9,1.5,3.2,0.7c1.3-0.9,1.1-2.3,0.8-3.6    C292.8,382.4,284,375.5,281.3,375.7z M236,368.7c-0.1-2-0.8-3.7-2.4-4.8c-2-1.4-4.2-2.7-6.4-3.8c-1.3-0.7-2.6-2.7-4.3-0.8    c-1.4,1.6-0.8,3.6,0.2,5.1c2.5,3.8,6.7,5.3,10.6,7C235.7,372.2,236,370.1,236,368.7z M236.1,480.4c-0.4-5.2-4.9-6.3-8.4-8.3    c-1.4-0.8-2.9-3.1-4.7-1c-1.7,1.9-0.7,4.2,0.7,5.9c2.5,3,6.2,4.4,9.6,6.1C235.6,484.2,236,482.1,236.1,480.4z M293.3,417.7    c-0.4-5.4-5-6.4-8.4-8.5c-1.4-0.8-3-3.1-4.7-1c-1.5,1.9-0.7,4.3,0.8,5.9c2.5,2.9,6.2,4.4,9.6,6C293,421.3,293.3,419.3,293.3,417.7    z M298.8,517.3c0.4,5.2,4.7,6.3,8,8.3c1.5,0.9,3.4,3.4,5.1,1c1.7-2.3,0.5-5-1.6-6.6c-2.6-2-5.5-3.6-8.5-5.1    C299,513.4,299,515.8,298.8,517.3z M274.2,422.7c-0.2-5.3-4.5-6.5-7.9-8.3c-1.6-0.9-3.5-3.9-5.3-0.9c-1.5,2.3-0.2,5,1.9,6.6    c2.5,1.9,5.3,3.4,8.1,4.9C273.5,426.2,274.1,424.6,274.2,422.7z M293.4,433.7c-0.4-5.3-4.7-6.4-8-8.3c-1.5-0.8-3.3-3.5-5-1.1    c-1.7,2.3-0.5,5,1.5,6.6c2.6,2,5.5,3.7,8.5,5.1C292.9,437.4,293.3,435.3,293.4,433.7z M300.4,418.5c-2.5,1.1-1.9,3.5-0.9,5.5    c1.8,3.7,5.9,4.5,9,6.6c0.9,0.6,2,1.4,3.2,0.4c1.1-1,0.9-2.4,0.6-3.7C311.7,425.1,303.6,418.7,300.4,418.5z M261.9,380.6    c-2.1,1.7-1.6,4-0.2,6.2c2,3.1,5.6,3.9,8.5,5.8c0.9,0.6,2,1.4,3.2,0.6c1.3-0.9,1-2.3,0.8-3.6C273.7,387.2,264.8,380.3,261.9,380.6    z M300.6,434.4c-0.9,0.1-1.5,0.6-1.7,1.5c-0.4,1.9-0.1,3.7,1.2,5.1c2.3,2.7,5.7,3.9,8.7,5.6c3.1,1.8,3.8,0,3.6-2.7    C312.2,441.3,303.4,434.2,300.6,434.4z"></path>
		<path class="st1" d="M280.9,297.4c0-62.2,0.1-124.3,0.1-186.5c0-4.6-0.2-9.3,3-13.3c1.7,0.7,0.7-0.8,0.9-1.2    c0.3-0.3,0.6-0.6,0.9-0.9c1.5,0.1,3.1,0.2,3.1-2c0,0-0.1,0.1-0.1,0.1c3.9-0.2,7.5,0.4,11,2.4c9.3,5.5,18.7,10.8,28,16.2    c24.5,14.2,49.1,28.4,73.6,42.7c1.6,0.9,3.5,1.4,3.4,3.8c-0.1,1.7-1.2,3-2,4.5c-6.5,11.2-13,22.4-19.5,33.5    c-18.3,31.6-36.6,63.1-54.7,94.8c-4.7,8.3-10.3,16.2-13.8,25.2C303.1,311.1,292,304.2,280.9,297.4z M349.7,249    c-0.2-2.5-0.8-5-2.9-6.6c-2.6-2-5.6-3.5-8.4-5.2c-1.3-0.8-2.7-2.3-4.4-0.8c-1.5,1.2-1.2,3-1,4.6c0.3,2.6,1.5,4.7,3.8,6.1    c2.7,1.7,5.4,3.2,8.1,4.8C348.2,253.9,349.4,252.3,349.7,249z"></path>
		<path class="st1" d="M819.4,721.9c0.1-3.3,0.2-6.7,0.2-10c0-66.6,0-133.1,0-199.7c0-0.8,0.1-1.6,0.1-2.5c2.2,0.2,1.5,1.9,1.9,3    c4.1,14.5,10.8,27.3,24.2,35.3c9.3,5.6,18,3.2,22.5-5.5c0.8-1.5,1.4-3,2.1-4.5c0.2,0.1,0.4,0.3,0.6,0.4c0,3.5-0.1,7-0.1,10.5    c0,78.6,0,157.1,0,235.7c0,7-1,13.6-5.4,19.3c0,0,0.1-0.1,0.1-0.1c-0.4,0.3-0.7,0.7-1.1,1c-6.5,4.7-13.4,4.5-21-0.7    c-9.9-6.8-15.8-16.7-20-27.7c-0.8-2.2-1.5-4.4-2.2-6.6c-0.2-0.7-0.4-1.3-0.6-2c-1.4-2.5-0.8-5.3-1.1-8c0.1-1.1,0.5-2.3-0.8-3.1    c0-0.6,0-1.2,0-1.8c1.3-0.8,0.9-2,0.7-3.1C819.4,741.9,819.4,731.9,819.4,721.9z"></path>
		<path class="st0" d="M582.8,563.1c0.5,0,1-0.1,1.5-0.1c4.3-0.3,7.4,1.8,9.7,5.1c4.1,5.9,7.3,12.3,9.6,19.1    c1.2,3.7,1.7,7.5-0.5,11.1c-1.6,2.6-4.1,4.3-6.6,5.9c-2.9,1.9-4.1,3.9-2.5,7.4c2.4,5.3,3.6,11.1,4.5,16.8c0.5,2.8,1.7,4.2,4,5.7    c5,3.2,10.9,5,14.5,10.2c6.6,9.5,5.1,19.9,3.8,30.3c-5.4,5.1-9.6-0.1-14.2-1.8c-6.6-4.7-6.6-4.7-9.2,2.9c-0.5,1.6-0.9,3.3-1.9,4.6    c-3.3,4.6-1.5,8.2,0.9,12.6c4.7,8.7,11.2,17.3,6.4,28.2c0,0,0,0,0,0c-1.6-0.1-2.5,0.7-3.1,2c-6.6,4.5-10.7,4.1-15-2.4    c-3.3-4.9-6.1-10.2-8.5-15.6c-1.8-4.1-4.2-5.4-8.3-4.1c-1.6-0.1-3.4,0.3-4.9-0.3c-5.1-1.9-5.3,0.7-5.4,4.7c0,6,1.3,12.2-1.8,17.9    c-1.7,1.8-3.8,2-6,1.5c-10.9-2.7-19.7-12.8-19-24c0.6-10.9-0.9-20.2-10.2-27.1c-1.3-1-2.2-2.5-3.2-3.8c-1.9-2.8-4.1-2.6-6.3-0.6    c-8.6,8-13.9,4.4-18.7-3.4c-2.5-4.1-4.9-8.4-6.6-12.8c-3.6-9.1-3.8-14.8,5.2-20.1c3.6-2.1,4.5-4.4,2.9-8.5    c-1.9-4.8-3.1-9.9-3.9-14.9c-0.6-3.6-2.3-5.8-5.5-7.6c-5.2-2.8-10.8-5.2-14.1-10.7c-5.2-8.5-3.9-17.6-3.2-26.7    c0.2-2.1,1.8-3.9,4.2-4.4c3.2-0.2,5.7,1.5,8.3,3c9.5,5.3,9.4,5.3,12.2-5c3.4-4.6,3.3-8.9,0.2-14c-3.5-5.7-7.1-11.7-8.3-18.5    c0-2,0.1-4,0.1-6c2.2-4.7,6.5-7.1,10.9-9.3c7.7,1.3,10.7,7.6,13.2,13.5c3.6,8.6,7.7,14.4,18.6,12.8c3.8-0.6,4.8-1,4.3-4.4    c-0.1-0.8-0.1-1.6-0.1-2.5c0-3.6-0.1-7.2,0-10.8c0.1-3.6,1.5-6.4,5.2-7.5c16,5.4,22.4,13.1,21.7,28.7c-0.4,8.7,1,15.9,8.5,21.1    c0.5,0.4,0.9,1,1.3,1.5c6.2,8.1,6.2,8.1,14.2,2.1C582,564.2,582.4,563.6,582.8,563.1z M501.9,594.2c-0.3,6.2,0.6,12.3,2,18.2    c5.7,24.1,16.5,45.1,37,60.2c13.7,10.1,28.8,9.4,37.8-2.2c6.4-8.3,8.1-18.3,7.8-28.3c-0.6-19.1-6.2-36.9-16.3-53.2    c-6.8-11-15.2-20.5-26.4-27.3c-17.1-10.4-35.1-3.1-39.9,16.3C502.5,583.3,501.5,588.7,501.9,594.2z"></path>
		<path class="st1" d="M494.7,510.1c-4.4,2.1-8.7,4.5-10.9,9.3c-6.3,4.3-12.5,8.7-19.1,12.7c-12.1,7.4-24.6,8.6-37.3,1.3    c-23.9-13.7-47.8-27.6-71.7-41.3c-3.1-1.8-5.7-3.9-7.7-6.9c-1-7.4,3.5-11.3,9.3-14.2c13.2-6.7,26.4-13.2,39.6-19.9    c1.7-0.7,3.2-1,5.1,0.1c31.6,18.4,63.3,36.6,94.9,54.9c0.4,0.2,0.7,0.7,1.1,1C496.9,508.2,495.8,509.2,494.7,510.1z"></path>
		<path class="st2" d="M101.6,407.3c0.4-13.7,4.6-14.4,15-7.5c5.3,3.5,5.5,3.3,7.3-2.5c0.1-0.3,0.1-0.7,0.3-1    c5-7.1,2.6-13.5-1.6-19.9c-2.1-3.2-3.8-6.6-4.6-10.4c-1.4-6.4-0.3-9.4,5.1-13.2c4.6-3.3,7.2-3.1,11.2,1.2    c4.3,4.6,6.3,10.6,9.2,15.9c1.6,2.9,3.3,4.4,6.6,3.6c3.3-0.9,7.6,2.5,9.6-0.5c1.5-2.3,0.4-6.5,0.4-9.8c0.1-3.9-0.8-8.5,3.1-11    c4.3-2.6,7.5,1.2,10.8,3c7.6,4.1,11.4,11,10.8,19.3c-0.7,9.3,1.3,16.7,8.7,23.3c6.8,6,6.1,6.7,13.6,1.6c0.7-0.5,1.4-0.8,2.2-1.2    c0.2,23.8,0.5,47.6-0.2,71.4c-4.3-2.5-8.7-5-13-7.5c-0.7-6.9-1.4-13.8-4.2-20.1c-4.3-9.8-9.5-19-19.2-24.7    c-10.2-6-19.7-2.2-22.7,9.2c-0.7,2.6-1.2,5.2-0.9,7.9c-5.1-1.1-9.1-4.4-13.5-6.9C124.3,420.8,112.5,414.8,101.6,407.3z"></path>
		<path class="st3" d="M404.9,158.6c0-2.3-1.9-2.9-3.4-3.8c-24.5-14.2-49.1-28.4-73.6-42.7c-9.3-5.4-18.7-10.7-28-16.2    c-3.5-2.1-7.1-2.6-11-2.4c4.4-2.6,8.7-5.4,13.2-7.9c4.5-2.5,8.7-0.6,12.7,1.7c22.9,13.2,45.8,26.4,68.7,39.6    c64.2,37.1,128.4,74.1,192.6,111.2c0.2,8.4,0.3,16.8,0.5,25.2c-2.9-0.9-1.7-3.3-1.7-5c0-2.2-0.6-3.8-2.6-4.9    c-11.9-6.5-23.2-14.1-35.5-20c-8-5.9-17-10.2-25.5-15.2c-3.7-2.1-7-5.1-11.4-5.7c-6.8-5.7-14.6-9.6-22.6-13.1    c-0.8-0.8-1.5-1.8-2.5-2.4c-21.7-12.6-43.4-25.1-65.1-37.6C408.2,158.6,406.7,158,404.9,158.6z"></path>
		<path class="st4" d="M865.5,803.9c4.4-5.7,5.4-12.3,5.4-19.3c0-78.6,0-157.1,0-235.7c0-3.5,0-7,0.1-10.5c0.6-2.1,1-4.2,0.1-6.3    c0.4-14.6-3.9-27.8-12.3-39.7c-3.9-5.5-8.6-10-14.5-13.4c-69.8-40.2-139.5-80.5-209.3-120.8c-0.7-0.4-1.5-0.6-2.3-1    c0.1-2.8,0.1-5.6,0.2-8.3c37.3,21.5,74.6,42.9,111.9,64.5c34.4,19.8,68.7,39.9,103.2,59.6c19.8,11.3,29,29,29.8,50.9    c0.8,22.3,0.2,44.6,0.2,66.9c0,62.4,0,124.8,0,187.3c0,5,0.2,10-1.6,14.8C874.5,798.1,871.5,802.5,865.5,803.9z"></path>
		<path class="st5" d="M280.9,297.4c11.1,6.8,22.2,13.8,34,19.3c1.7,2.1,4.1,3.3,6.5,4.4c8.1,3.9,12.8,10.6,14.1,19.1    c1,6.3,0.4,12.8,0.5,19.3c0,18.6,0,37.2,0.1,55.8c0,51.7-0.1,103.3-0.1,155c0,2.3-0.3,4.7,0,7c1.3,8.7-3.3,13.4-10.8,16    c-0.1-0.2-0.3-0.3-0.5-0.5c0.1-8.9,0.2-17.8,0.3-26.7c0.1-8.8,0.2-17.6,0.2-26.4c0-54.7,0-109.3,0-164c0-1.8-0.1-3.7-0.2-5.5    c0-6.6,0.1-13.3,0-19.9c-0.1-9.9-4.2-17.4-13-22.4c-23.3-13.3-46.5-27-69.9-40.3c-8.6-4.9-16.8-10.8-26.2-14.2    c2.1-1.3,4.2-2.6,6.2-4c2.8-1.9,5.7-2.4,8.8-0.6c7.4,4.4,14.8,8.7,22.2,13.1c3.5,1.3,6.1,4.5,10.1,4.7    C268.5,291.2,274.7,294.2,280.9,297.4z"></path>
		<path class="st3" d="M632.8,348.9c-0.1,2.8-0.1,5.6-0.2,8.3c0,62,0,124,0.1,186c0,7.8-2.2,14-9.9,17.3c-2.4,1-4.7,2.5-7,3.8    c-0.3-0.2-0.6-0.4-0.9-0.7c1.9-3,2.7-6.3,2.7-9.9c0-9.5-0.1-19.1,0.1-28.6c0-2.3-0.7-3.8-2.5-4.8c3.6-0.6,2.4-3.5,2.4-5.5    c0.1-66.1,0-132.1,0-198.2c0-1.8,0.6-3.7-0.9-5.2c5.3-4.3,10.6-8.6,15.9-12.9C632.7,315.3,632.8,332.1,632.8,348.9z"></path>
		<path class="st1" d="M256,705.7c1.6,7,3.1,14.1,4.7,21.1c0.4,1.8,1,3.5-0.9,4.8c-3.3,2-6.9,3-10.7,3.2c-2.7-0.2-3.2-2.3-3.9-4.4    c-2.6-8.7-5.3-17.3-8-26c-1.2-4.2-2.4-8.4-3.6-12.6c-0.5-2.1-1-4.1-1.5-6.2c-1.4-3.9-4.6-6.3-8.1-7.4c-3.5-1.1-8.2,1.1-9.4-4.7    c-0.1-0.3-1.1-0.5-1.8-0.6c-4.4-0.6-8.8-3.4-13.1,0.5c-0.6,0.5-1.9,0.4-2.8,0.2c-7.1-1.5-10-5.4-9.7-12.8c6,2.8,11.8,6.3,18.5,1.9    c0.2-0.1,0.4-0.4,0.9-1c-7.6-4.9-14.1-10.7-17-19.7c-0.3-1-1.5-1.2-2.5-1.3c0-1.3,0-2.5,0.1-3.8c0.4-2.1,0.3-4.4,2.6-5.7    c3.6,1.1,6.3,3.9,9.5,5.7c9.4,5.5,19.6,9.2,29.9,12.6c-1.4,0.8-2.9,1.6-4.3,2.5c-4.3,2.6-4.3,4.4,0.2,6.9    c8,4.6,16.1,9.1,24.1,13.7c0.2,0.4,0.3,0.7,0.5,1.1c-1.3,6.9,2.2,12.9,3.4,19.3C254,697.4,255,701.6,256,705.7z"></path>
		<path class="st1" d="M263.1,286.7c-4-0.3-6.6-3.5-10.1-4.7c1.4-6.1-1-9.6-6.6-12.5c-11.6-6.1-22.8-13-34.2-19.5    c-40-23.1-80-46.2-120-69.3c0,0-0.3,0.1-0.3,0.1c0.1-0.1,0.2-0.3,0.3-0.4c5.7-5.2,10.9-4.9,17.8-0.8c49.3,29,98.8,57.4,148.4,85.8    c3.7,2.1,5.2,4.4,4.8,8.6C262.8,278,263.1,282.3,263.1,286.7z"></path>
		<path class="st5" d="M249.7,674c-0.2-0.4-0.3-0.7-0.5-1.1c3-1,1.4-3.5,1.7-5.3l-0.1-0.3l0.2-0.2c1.3-1.2,0.6-2.8,0.9-4.2    c1.6-8.9-0.2-18,2.1-26.9c0,0-0.1,0.1-0.1,0.1c0.4-0.4,0.7-0.7,1.1-1.1L255,635c0.4-0.4,0.7-0.7,1.1-1.1l-0.1,0.1    c0.7-0.4,1.4-0.7,2.1-1.1l-0.1,0.1c1,0,1.7-0.6,2-1.5l0-0.4l0.3-0.2c4.9-2.2,9.6-4.6,13.8-8c2.6-1.6,5.3-3.2,7.9-4.8    c2.5-0.4,4.5-1.9,6.7-3.2c4.9-3,5.8-2.5,6.1,3.2c-1.6,3.2-0.5,6.6-0.8,9.9c-0.4,7.2-0.6,14.5-1.4,21.7c-0.3,2.6-4.6,2.6-5.1,5.6    c-0.9-1.4-1.9-0.7-2.9-0.1c-4.4,2.6-8.8,5.2-13.2,7.8c-4.7,2.8-9.6,5.2-14,8.4C254.9,673.2,252.7,674.4,249.7,674z M274,645    c2.4-0.3,4.2-1.8,4.7-4.2c0.4-1.9-0.9-3.4-2.7-3.3c-2.4,0.1-4.4,1.6-4.9,4.1C270.8,643.6,271.9,644.7,274,645z"></path>
		<path class="st3" d="M620.7,674.5c1.3-10.4,2.8-20.7-3.8-30.3c-3.6-5.3-9.5-7-14.5-10.2c-2.3-1.5-3.5-2.9-4-5.7    c-0.9-5.7-2.1-11.5-4.5-16.8c-1.6-3.5-0.5-5.5,2.5-7.4c2.5-1.6,5-3.3,6.6-5.9c2.2-3.5,1.7-7.3,0.5-11.1    c-2.3-6.8-5.6-13.2-9.6-19.1c-2.3-3.3-5.4-5.4-9.7-5.1c2.6-2.4,5.8-3.7,8.8-5.4c3.3-1.8,6.4-0.6,8.5,1.9    c6.5,7.4,11.3,15.9,13,25.7c0.8,4.6-0.8,8.4-4.9,11c-1.8,1.1-3.4,2.6-5,3.9c-2.6,1.6-0.7,3.4-0.2,5.1c0.6,2.3,1.5,4.6,2.3,6.9    c0.2,0.7,0.4,1.5,0.5,2.2c0.2,0.6,0.3,1.2,0.5,1.8c0.2,0.7,0.3,1.5,0.5,2.2c-0.1,5.8,2.7,9.4,8,11.8c17.2,7.9,16.7,20.4,15.3,35.2    C631,671.1,624.7,671.8,620.7,674.5z"></path>
		<path class="st6" d="M232.1,685.7c0.5,2.1,1,4.1,1.5,6.2c-0.8,0.2-1.6,0.6-2.4,0.6c-3.9,0.3-6.7,1.3-5.1,6.3    c0.6,1.8-0.3,3-2.5,3.3c-5.9,0.8-11.9,1-17.9,0.9c-2.1,0-3.8-0.7-3.6-3.1c0.5-5.2-2.3-6.1-6.6-6c-2.3,0-4.6-0.7-6.8-1.5    c-3.7-1.4-6.8-0.7-10.2,1.4c-6,3.8-18.5-1-21.4-7.9c0-0.7,0.1-1.3,0.1-2c1.9-0.1,3.5-0.8,5-1.9c1.1-0.8,2.3-1.5,1.1-3.2    c-3.3-4.8-5.5-11-13.4-8.9c-1.7,0.5-3.6,0.2-5.4,0.2c-0.1-0.3-0.2-0.6-0.3-1c-0.9-12.2,0.2-13.5,12.1-13.2c0.8,0,1.7,0.1,2.5-0.1    c3.1-1,4.9-3.6,5.9-6.2c0.7-1.9-2.5-2.1-3.7-3.3c-1.1-1.1-3.3-1.3-2.8-3.6c3.3-4.3,8.2-6.4,12.9-7.9c3.2-1.1,5.9,2,8.2,4.3    c-3.6,2.1-5.6,4.9-4.6,9.3c0.6,2.8-1.5,3.7-3.5,3.4c-4.1-0.5-4.7,1.9-4.9,4.9c-0.1,2-0.1,4-0.1,6c0,7.8,0,7.8,7.7,8.3    c0.3,0,0.6,0.3,1,0.4c-1.3,1.4-0.9,3.1-1,4.8c-0.1,9.3,9.2,15,17.4,10.7c4.6-2.4,8.6,1.3,12.9,1.2c2.8-0.1,1.3,3,2.3,4.2    c2.7,3.4,6.4,1.3,9.6,1.4c2.4,0.1,6.7,0.9,6.8-1.9C223.3,684.8,228.4,686.6,232.1,685.7z"></path>
		<path class="st4" d="M232.1,685.7c-3.7,0.9-8.7-0.9-9.1,6c-0.1,2.8-4.4,2-6.8,1.9c-3.2-0.1-7,2-9.6-1.4c-1-1.3,0.5-4.3-2.3-4.2    c-4.4,0.1-8.3-3.6-12.9-1.2c-8.2,4.3-17.5-1.4-17.4-10.7c0-1.6-0.3-3.4,1-4.8c-0.4-0.2-0.7-0.4-1-0.4c-7.8-0.5-7.8-0.5-7.7-8.3    c0-2,0-4,0.1-6c0.2-3.1,0.8-5.5,4.9-4.9c2,0.3,4.1-0.6,3.5-3.4c-1-4.4,1.1-7.2,4.6-9.3c2.7-0.3,4.6-3.4,7.8-2c0,1.3,0,2.5-0.1,3.8    c-6.7-0.1-7,0.2-6.8,8c-0.3,10.7-0.7,8.9,7.8,9c-0.3,1-0.6,2-0.9,3c-0.3,7.4,2.6,11.3,9.7,12.8c0.9,0.2,2.3,0.3,2.8-0.2    c4.3-3.9,8.7-1.1,13.1-0.5c0.6,0.1,1.7,0.3,1.8,0.6c1.2,5.8,5.9,3.6,9.4,4.7C227.5,679.4,230.7,681.8,232.1,685.7z"></path>
		<path class="st0" d="M157.2,685.9c2.9,6.9,15.4,11.7,21.4,7.9c3.3-2.1,6.4-2.8,10.2-1.4c2.1,0.8,4.5,1.6,6.8,1.5    c4.3-0.1,7.1,0.8,6.6,6c-0.2,2.3,1.5,3,3.6,3.1c6,0.1,11.9,0,17.9-0.9c2.2-0.3,3.1-1.5,2.5-3.3c-1.7-5,1.1-6,5.1-6.3    c0.8-0.1,1.6-0.4,2.4-0.6c1.2,4.2,2.4,8.4,3.6,12.6c-1.9,0.6-3.8,1.4-5.7,1.6c-4.3,0.5-6.3,2.4-5.4,6.8c0.4,2.2-0.9,2.7-2.8,3    c-6,0.9-12,0.5-17.9,0.7c-2.8,0.1-3-1.6-2.9-3.5c0.1-3.6-1.6-5.1-5.1-5.2c-2.1-0.1-4.4-0.3-6.4-1.1c-5.3-2.2-10-1.4-14.3,2.1    c-1.9,1.5-3.8,1.6-6,0.4c-2.3-1.3-4.8-2.3-7.1-3.6c-7.8-4.4-10.1-9.9-7.7-18.4C155.9,686.7,156.7,686.3,157.2,685.9z"></path>
		<path class="st6" d="M229.1,649.8c-10.3-3.5-20.4-7.2-29.9-12.6c-3.2-1.9-5.9-4.6-9.5-5.7c-2.5-6.6-4.1-13.4-4.6-20.4    c5.4,2.5,10.2,1.1,14.8-2.2c2,1.7,1.4,4.1,1.2,6.1c-0.5,5.3,1.4,8.9,6.2,11.3c2.2,1.1,4.2,2.5,6.3,3.8c3.9,3.3,8.1,6.1,12.9,8.1    c3.4,3.2,7.7,5,11.9,6.9c0.8,0,1.7,0.1,2.5,0.1c3.4,0.4,6.7,0.8,10.1,1.2c2.1,5.2-0.8,10.4-0.1,15.6c-3.2-0.9-5.1-4.1-8.5-4.7    C237.8,655.1,233.4,652.5,229.1,649.8z"></path>
		<path class="st4" d="M348,485.2c2,3,4.6,5.1,7.7,6.9c23.9,13.7,47.8,27.6,71.7,41.3c12.6,7.3,25.2,6.1,37.3-1.3    c6.5-4,12.7-8.5,19.1-12.7c0,2-0.1,4-0.1,6c-5.9,4-11.8,8-17.8,11.9c-12.8,8.3-25.9,9.4-39.4,1.6c-23.9-13.9-47.9-27.8-71.9-41.5    C349.8,494.6,347,491,348,485.2z"></path>
		<path class="st6" d="M232,521.9c0.6,7.7,0.3,15.4-0.5,23.1c-0.1,1.1-0.8,2.9-1.5,3c-5.2,1.1-6.9,6.3-10.7,8.8c-3,2-6.7,2-9.8-0.5    c-2.1-1.7-3.1-3.6-1.8-6.5c1.8-4.1,3-8.2-2.6-10.8c-1.5-0.7-2.1-2.5-2-4.3c3.3-6.4,5.2,0.7,8.7,0.8c-1-4.4,1.4-8.4,0.8-12.8    c0.3-0.3,0.6-0.6,0.9-1C219.6,524.1,225.8,523.5,232,521.9z"></path>
		<path class="st1" d="M199.8,608.8c-4.5,3.3-9.4,4.7-14.8,2.2c-1.9-9.4-3.1-19-4-28.6c-0.3-3.4,0.3-6.6,2.1-9.6    c3.5-5.7,9.5-5.8,13.2-0.2c1.1,1.6,2,3.5,2.3,5.5C200.6,588.3,200.1,598.5,199.8,608.8z"></path>
		<path class="st6" d="M282,618.1c-2.6,1.6-5.3,3.2-7.9,4.8c-10.1-2-19.6-5.6-29-9.7c-8.3-3.6-12.1-9.1-11.1-18.1    c0.2-1.5,0.2-3,0.2-4.4c4.4,0.2,7.8-1.9,10.8-4.8c1.5,2.4,1.4,5.2,1.5,7.7c0.3,5,3.2,7.2,7.1,9.3C263.1,607.9,272.6,613,282,618.1    z"></path>
		<path class="st1" d="M226.5,638c-4.8-1.9-9-4.7-12.9-8.1c9.1-1.8,17.9-4.2,23-13.1c0.8-1.3,1.4-0.9,2.4-0.3    c7.1,4.9,14.9,8.6,21.4,14.3c0,0-0.3,0.2-0.3,0.2s0,0.4,0,0.4c-0.7,0.4-1.8,0.4-2,1.5c0,0,0.1-0.1,0.1-0.1c-0.9,0-1.6,0.2-2.1,1.1    c0,0,0.1-0.1,0.1-0.1c-0.6,0.1-1.1,0.3-1.1,1.1c0,0,0.1-0.1,0.1-0.1c-0.8,0-1.1,0.3-1.1,1.1c0,0,0.1-0.1,0.1-0.1    c-2.7,0.8-5,2.2-7.1,4l0.1,0c-0.6,0.1-1.3,0.1-1.1,1.1l0.1-0.1c-1.8-0.7-2.8,1.5-4.4,1.3C236.5,641.2,232.2,636.9,226.5,638z"></path>
		<path class="st1" d="M232,521.9c-6.2,1.6-12.4,2.2-18.6-0.1c-0.6-0.5-1.4-1.2-1.9-0.5c-0.7,1,0.6,1,1.1,1.4    c0.6,4.4-1.8,8.4-0.8,12.8c-3.5-0.1-5.4-7.3-8.7-0.8c-5.1-6.6-4.8-9.4-1.2-17.2c1.7-3.6,2.6-7.1,6.9-8.2c3.8-1,7.6-1.1,11.3,0.2    c2,0.7,3.5,0.3,5-0.9c4-0.5,6.7,1.4,8.4,4.9C233.7,516.3,233.8,519.3,232,521.9z"></path>
		<path class="st1" d="M271.4,663c4.4-2.6,8.8-5.2,13.2-7.8c1-0.6,2-1.3,2.9,0.1c3.1,10,6.2,19.9,9.2,29.9c0.4,1.2,1.1,2.5,0.2,3.8    c-2.9,2.6-6.2,4.2-10.1,4.4c-2.5-0.2-3-2.2-3.8-4c-2.3-5.5-4.7-11-7-16.4c0-0.6-0.1-1-0.9-1.1l0-0.1    C274.8,668.5,272.6,666,271.4,663z"></path>
		<path class="st3" d="M602.8,721c4.8-11-1.7-19.6-6.4-28.2c-2.4-4.4-4.2-8-0.9-12.6c0.9-1.3,1.3-3,1.9-4.6c2.6-7.6,2.6-7.6,9.2-2.9    c-3.8,4.8-3,9.5,0.2,14.3c2.1,3.1,3.7,6.7,5.3,10.1C617.7,708.7,614.9,715.9,602.8,721z"></path>
		<path class="st4" d="M261.2,740.6c5.8,6,11.6,11.9,17.3,17.9c1.4,1.4,3,4.4,1.8,5.1c-2.6,1.5-3.4,5.7-7.4,5    c-2.7-0.4-5.3-1-7.4-2.7c-5.8-4.7-10.4-10.7-15.3-16.3c-2.2-2.5-1.9-6.2-0.3-9.4c2.6,5,4,5.4,8,2.3    C258.9,741.8,260.1,741.2,261.2,740.6z"></path>
		<path class="st4" d="M301,699.1c5.2,3.7,11.5,5,17.2,7.7c1.3,0.6,2.7,1.3,3.9,2.1c1.8,1.1,4.9,3.3,4.1,4.3    c-1.4,1.8-3.1,4.3-6.1,4.7c-3.9,0.5-7.6,0.1-11.2-1.5c-4-1.7-8.1-2.9-12.5-3.4c-8.2-1-10.3-4.8-7.6-13.2    C293.6,704.3,297.7,704.1,301,699.1z"></path>
		<path class="st0" d="M256,705.7c-1-4.1-2-8.3-2.9-12.4c1.2-0.5,2.5-0.9,3.6-1.6c7.3-4.3,7.4-4.4,0.2-8.5c-2.7-1.5-2.5-2.3-0.8-4.7    c2.8-4.1,6-5,10.5-3.8c3.3,0.9,6.6,0.8,8.5-2.8c0,0,0,0.1,0,0.1c0,0.3,0,0.7,0,1c-0.1,3.6-0.1,7.3-0.5,10.9    c-0.3,3.3-1.7,5.6-5.8,4.7c-4.2-0.9-6.8,0.4-5.8,5.3C264.1,699.9,261.4,703.6,256,705.7z"></path>
		<path class="st1" d="M245,585.9c-3,2.9-6.4,5-10.8,4.8c-0.5-7.4,0.8-14.6,2-21.8c1.2-7,1.2-13.8-3.5-20.9    c6.3,2.2,8.1,6.5,9.1,11.2C243.8,568,244,577,245,585.9z"></path>
		<path class="st0" d="M144.5,670.2c1.8-0.1,3.7,0.2,5.4-0.2c8-2.1,10.2,4.1,13.4,8.9c1.1,1.7-0.1,2.4-1.1,3.2    c-1.5,1.1-3.1,1.8-5,1.9c-4.1-0.9-9.7,1.6-12-1.7C143.3,679.4,144.6,674.3,144.5,670.2z"></path>
		<path class="st3" d="M555.8,723.3c3.1-5.7,1.8-11.9,1.8-17.9c0-4,0.3-6.6,5.4-4.7c1.5,0.6,3.3,0.2,4.9,0.3c0,1.2-0.2,2.3,0,3.4    C569.8,714.5,564.8,720.2,555.8,723.3z"></path>
		<path class="st3" d="M491.8,558c-2.7,10.4-2.7,10.3-12.2,5c-2.6-1.4-5.1-3.2-8.3-3c2.8-1.7,5.5-3.5,8.4-5.2    C484.6,552,487.9,556.4,491.8,558z"></path>
		<path class="st6" d="M294,628c0.3-3.3-0.8-6.7,0.8-9.9c4.5,2.2,9.3,3.7,12.6,7.7c1.4,1.7,2.4,3.8,1.1,5.3    c-1.4,1.7-3.7,2.4-6.2,0.9C299.8,630.3,297.1,628.7,294,628z"></path>
		<path class="st6" d="M301,699.1c-3.4,5-7.4,5.3-12.1,0.8c-0.7-2.1-1.4-4.3-2.2-6.4c3.9-0.2,7.3-1.8,10.1-4.4    C297.2,692.8,298.4,696.3,301,699.1z"></path>
		<path class="st6" d="M261.2,740.6c-1.1,0.7-2.3,1.2-3.3,2c-4,3.1-5.4,2.7-8-2.3c0.4-1.9-0.6-3.6-0.9-5.4c3.8-0.3,7.4-1.2,10.7-3.2    C260.2,734.6,260.7,737.6,261.2,740.6z"></path>
		<path class="st0" d="M158.2,642.8c-0.5,2.3,1.7,2.5,2.8,3.6c1.2,1.2,4.5,1.4,3.7,3.3c-1,2.6-2.8,5.3-5.9,6.2    c-0.8,0.2-1.6,0.1-2.5,0.1c0-3.2,0.1-6.5,0.1-9.7C156.5,644.8,156.3,643.3,158.2,642.8z"></path>
		<path class="st7" d="M288.9,93.5c0,2.2-1.6,2.1-3.1,2C286.6,94.5,287.6,93.8,288.9,93.5z"></path>
		<path class="st8" d="M599.7,723c0.6-1.4,1.5-2.2,3.1-2C602.2,722.2,600.9,722.6,599.7,723z"></path>
		<path class="st7" d="M284.9,96.4c-0.3,0.4,0.7,1.9-0.9,1.2C284.3,97.2,284.6,96.8,284.9,96.4z"></path>
		<path class="st6" d="M275,672.9c0-0.3,0-0.7,0-1c0.7,0,0.9,0.5,0.9,1.1C275.6,673,275.3,673,275,672.9z"></path>
		<path class="st5" d="M325.1,593.2c-0.3,0.1-0.5,0.2-0.8,0.3c0.1-0.3,0.2-0.5,0.3-0.8C324.8,592.9,325,593.1,325.1,593.2z"></path>
		<path class="st4" d="M864.5,804.8c0.4-0.3,0.7-0.7,1.1-1C865.8,804.7,865.1,804.6,864.5,804.8z"></path>
		<path class="st1" d="M616.8,311.4c1.6,1.5,0.9,3.4,0.9,5.2c0,66.1,0,132.1,0,198.2c0,2.1,1.2,5-2.4,5.5    c-19.6-11.2-39.2-22.4-58.8-33.7c-40.5-23.3-80.9-46.7-121.3-70.1c-1.1-0.7-2.2-1.5-3.3-2.2c0.9-1.4,1.8-2.8,2.6-4.2    c14.4-24.9,29-49.7,43.2-74.6c4.9-8.6,10.5-16.9,14.3-26.2c3.1,0.3,2.8,2.6,2.8,4.8c0,11,0,22,0,32.9c0,7.8,0,7.8-6.7,4.4    c-0.2-0.1-0.6,0.1-0.9,0.2c-0.4,10.4-0.4,10.4,8.2,15.4c3.2,1.8,6.3,3.7,9.5,5.5c3.5,1.9,6.8,4.5,11,5.8c0-1.5-0.1-2.5,0-3.5    c0.5-4.7,0.1-8.8-5.4-10.5c-1.3-0.4-2.5-1.4-2.5-3.3c0.1-14,0-28.1,0-42.7c2.9,1.5,5.2,2.7,7.8,4.1c0-2.1-0.2-3.6,0-5    c0.7-4.5-1-7.3-5.2-9.3c-4.5-2.1-8.6-5-12.8-7.6c3.7-6.5,7.4-12.9,11.2-19.4c9.3-15.9,18.6-31.8,27.9-47.7    c12.3,5.9,23.6,13.4,35.5,20c2,1.1,2.6,2.7,2.6,4.9c0,1.8-1.2,4.2,1.7,5c6.6,3.8,13.2,7.7,19.9,11.4c2.6,1.4,3.3,3.1,3.3,5.9    c-0.1,13.3-0.1,26.6-0.1,40.9C605.8,317.9,611.3,314.7,616.8,311.4z M565.8,372.4c-0.1-1.6-0.9-4-3-5.5c-2.5-1.8-5.3-3.3-8.1-4.8    c-1.4-0.8-2.7-2.3-4.4-0.8c-1.4,1.2-1.3,3-1,4.6c0.4,2.7,1.7,5,4.2,6.4c2.4,1.4,4.8,2.9,7.3,4.2    C564.5,378.5,565.9,377.6,565.8,372.4z M540,359.4c0-3.5-1-6.1-3.5-7.8c-2.6-1.7-5.4-3.2-8.1-4.8c-1.1-0.6-2.2-1.6-3.6-0.7    c-1.5,1-1.5,2.5-1.4,4c0.2,3,1.4,5.5,3.9,7.1c2.7,1.7,5.4,3.2,8.1,4.7C538.8,363.9,539.9,362.1,540,359.4z"></path>
		<path class="st9" d="M336,359.5c-0.1-6.4,0.5-13-0.5-19.3c-1.3-8.5-6-15.2-14.1-19.1c-2.3-1.1-4.8-2.3-6.5-4.4    c3.5-9,9-16.9,13.8-25.2c18.1-31.7,36.4-63.2,54.7-94.8c6.5-11.2,13-22.4,19.5-33.5c0.8-1.4,1.9-2.7,2-4.5c1.7-0.7,3.2,0,4.7,0.8    c21.7,12.5,43.4,25.1,65.1,37.6c1,0.6,1.7,1.6,2.5,2.4c-9,15.4-18,30.8-27,46.3c-3.9,6.9-8.4,13.4-11.5,20.8    c-1.5,0.5-0.7,1.9-1.2,2.9c-0.8-0.4-1.3-0.4-1.8,0.7c-3.4,7.1-7.5,13.7-11.7,20.4c-1.5-7.2-3-14.4-4.5-21.7c0.3-0.3,0.5-0.6,0.8-1    c1.6,0.8,3.2,1.5,4.9,2.4c1.6-10.3,1.6-10.3-6.7-15.1c-7.3-4.3-14.7-8.5-22.1-12.7c-1.2-0.7-2.2-2.2-3.9-1.3    c-0.4,7.8-0.5,7.8,5.4,13.6c1.4,1.4,0.8,2.7,0.4,4.1c-2.4,9.3-4.8,18.7-7.1,28c-1.8,6.9-1.8,6.9-8.1,4.9c0.4,3.8-2,8.6,1.1,10.9    c6.5,4.8,13.9,8.4,21.5,12.9c0-2.3-0.1-3.4,0-4.6c0.5-4.4,0-8.2-5-9.9c-1.4-0.5-1.7-1.6-1.4-3.2c1.5-8.3,1.4-8.3,8.8-4    c1.1,0.7,2.3,1.4,3.5,2c4.6,2.1,3.7,6.6,4.3,10.4c0.2,1.3-1.3,2.5-2.8,1.9c-3.3-1.4-2.7,0.8-2.8,2.6c-0.1,1.5-0.1,3-0.2,4.5    c-4.8,8.3-9.6,16.5-14.4,24.9c-7.7,13.5-15.4,27-23,40.5C360.5,373.4,348.3,366.5,336,359.5z M375.6,264.1    c-0.3-2.3-0.7-4.5-2.2-6.1c-2.4-2.6-5.7-3.9-8.7-5.6c-1.3-0.8-2.6-2.4-4.4-1.3c-2.1,1.3-1.5,3.6-1.2,5.5c0.3,2.4,1.6,4.4,3.7,5.6    c2.7,1.6,5.5,3.1,8.2,4.7C374.4,269.1,375.1,266.7,375.6,264.1z"></path>
		<path class="st2" d="M726.2,451.8c-2.2,7.8,7,11,10.9,17c1.4,2.1,3.2-0.5,4.6-1.4c5.2-3.6,7.8-3.4,11.5,1.9    c2.7,4,4.9,8.3,6.5,12.9c1.7,4.8,1,9-3.7,11.7c-3.3,1.9-4.4,4.2-2.6,7.7c0.3,0.6,0.4,1.3,0.5,1.9c1,7.8,4.2,13.6,12,17.1    c5.3,2.4,6.8,8.2,6.9,14.1c0.2,14.3-0.6,14.9-12.9,8.5c-2.8-1.5-3.1-0.4-4.5,2c-3.8,6.8-2.6,12.8,1.6,18.8c1.6,2.3,2.6,5,3.2,7.8    c1,5-1.4,9.3-6.4,11c-4.2,1.4-6.5-1.6-8.5-4.5c-1.1-1.6-2-3.5-2.9-5.2c-4.5-8.6-4.5-8.5-13.8-8.5c-2.1,0-2.1,1-2.1,2.4    c0,3.3,0.2,6.7-0.1,10c-0.4,5.1-3.3,6.6-7.9,4.5c-8.2-3.9-13.3-10.2-11.7-19.4c1.8-10.2-6.3-14.5-10.9-21c-1.4-1.9-2.6,0.2-3.7,1    c-6.4,4.6-9.5,4-13.5-2.9c-1.5-2.6-2.9-5.3-4.1-8c-3.5-7.4-2.8-10.7,3.7-15.8c2.2-1.8,2.9-3.3,1.7-5.9c-0.6-1.3-1.1-2.8-1.3-4.3    c-0.7-7.3-4-12.4-11.1-15.4c-4.3-1.8-6.4-6.3-6.9-10.9c-0.4-3.8-0.4-7.7-0.1-11.5c0.3-4.4,2.9-5.7,6.9-3.9    c0.2,0.1,0.3,0.2,0.4,0.2c2.9,1.2,6.4,5.2,8,3.8c2.6-2.5,3.4-7,4.8-10.7c0.6-1.6-0.7-2.8-1.3-4.2c-2-4.4-4.8-8.4-6.2-13.1    c-1.1-4-0.7-7.5,2.9-10.3c4.5-3.5,8-3.2,11.2,1.7c2.4,3.6,4.2,7.6,6.3,11.4c1.2,2.2,10.5,4.3,12.4,2.7c1-0.8,0.7-2.1,0.7-3.3    c0-3-0.2-6,0.1-9c0.4-4.7,3.3-6.2,7.5-4.2C723.5,432.8,727.5,439.9,726.2,451.8z M741.5,520.1c-0.7-14.7-5.1-26.8-13.3-37.6    c-4-5.2-8.7-9.6-14.9-12.2c-7.9-3.3-15.1-0.6-18.8,7c-3.4,7.1-3.4,14.5-1.8,22c3.3,16,9.9,30.1,24.6,38.8c10.3,6.1,20,1.8,23-9.9    C741,525.3,741.2,522.1,741.5,520.1z"></path>
		<path class="st9" d="M536.8,233.5c-9.3,15.9-18.6,31.8-27.9,47.7c-3.8,6.4-7.5,12.9-11.2,19.4c-1.2-0.6-2.3-1.3-3.5-1.7    c-2.4-0.9-5.2-4.4-6.6-2.8c-1.5,1.6-0.6,5.6-0.6,8.5c0,3.2,3.7,2.8,4.9,4.9c-3.8,9.2-9.4,17.5-14.3,26.2    c-14.2,25-28.8,49.8-43.2,74.6c-0.8,1.4-1.7,2.8-2.6,4.2c-12.3-6.5-24.3-13.6-36.1-20.8c2.4-4.1,4.9-8.2,7.3-12.4    c9.7-16.7,19.5-33.5,29.2-50.2c2.9,1.8,4.4,0.7,4.6-2.4c0.1-1.3-0.1-2.6-0.2-3.8c0.1-0.3,0.3-0.5,0.6-0.5    c-1.2,8.8,4.2,12.7,11.2,16c5.4,2.5,10.5,5.9,16.2,9.2c0-1.9-0.1-2.9,0-3.9c0.4-4.7,0.3-9-5.3-10.7c-1.2-0.4-1.8-1.4-1.8-2.7    c0-3.4,0-6.9,0-10.8c4.7,2.3,8.7,4.6,13,6.3c6.3,2.5,10.7,0.3,12.6-6.2c1.4-4.9,1.1-9.9,0-14.8c-2.7-12.4-10.8-20.6-21.4-26.8    c7-12.2,14-24.3,20.8-36.6c5.7-10.2,12.2-20,17.2-30.6c4.4,0.6,7.8,3.6,11.4,5.7C519.8,223.3,528.7,227.6,536.8,233.5z"></path>
		<path class="st1" d="M432.2,331c-9.7,16.7-19.5,33.5-29.2,50.2c-2.4,4.1-4.9,8.3-7.3,12.4c-7.6-4.4-15.2-8.8-22.8-13.2    c7.7-13.5,15.3-27,23-40.5c4.7-8.3,9.6-16.6,14.4-24.9c0,0,0,0.1,0,0.1c-0.1,0.1-0.2,0.3-0.2,0.4c0.1,0.3,0.3,0.5,0.4,0.8    c0,2.3,1.9,2.9,3.4,3.8C420,323.8,426.1,327.4,432.2,331z"></path>
		<path class="st3" d="M582.8,563.1c-0.4,0.5-0.8,1.1-1.3,1.5c-7.9,6-7.9,6-14.2-2.1c-0.4-0.5-0.8-1.1-1.3-1.5    c-7.5-5.2-8.9-12.4-8.5-21.1c0.7-15.5-5.7-23.3-21.7-28.7c0.1-0.1,0.2-0.3,0.4-0.3c4.6-1.9,8.1-7.4,14.3-4.4    c9.1,4.4,17.7,10.5,16.9,21.3c-0.9,13.4,2.9,23.7,12.9,32.2C581.4,560.8,582,562,582.8,563.1z"></path>
		<path class="st3" d="M494.7,510.1c1.1-1,2.2-1.9,3.3-2.9c10-4,13.3-2.7,18.6,7.3c1.9,3.7,4.1,7.2,5.7,11c1.7,4.1,4.2,5.6,8.4,4    c0,0.8,0,1.7,0.1,2.5c0.5,3.4-0.5,3.8-4.3,4.4c-10.9,1.6-15-4.2-18.6-12.8C505.4,517.7,502.3,511.4,494.7,510.1z"></path>
		<path class="st8" d="M728.6,629.2c0,5.8-1.2,6.6-6.4,3.8c-4.4-2.3-8.8-4.7-13-7.2c-3.8-2.3-5.2-6.1-5.5-10.3    c-0.2-3.8,2.5-5.4,5.8-3.6c5,2.7,9.8,5.6,14.7,8.5C727.5,622.3,728.7,625.5,728.6,629.2z"></path>
		<path class="st0" d="M795.6,667.8c0,5.2-1.8,6.5-6.3,4.1c-4.9-2.6-9.9-5.3-14.5-8.4c-3.8-2.5-4.8-6.7-4.1-11    c0.4-2.6,2.1-4.2,5-2.6c5.2,2.9,10.4,5.9,15.5,9C794.2,660.9,795.8,664,795.6,667.8z"></path>
		<path class="st1" d="M695.2,609.7c0,5.9-1.5,6.8-6.2,4.2c-4.2-2.3-8.4-4.6-12.6-7.1c-2.2-1.3-3.8-3.3-4.5-5.7    c-0.8-2.9-1.8-6.4,0.4-8.6c2.5-2.4,4.8,0.9,6.9,2c3.6,1.8,6.9,4,10.4,5.9C693.6,602.5,695.4,605.7,695.2,609.7z"></path>
		<path class="st5" d="M738,636.4c0.1-6.9,1-7.4,6.4-4.3c4.2,2.4,8.4,4.7,12.5,7.2c4.2,2.6,6.1,7.4,4.7,12.1    c-0.7,2.4-2.1,3.1-4.4,1.7c-5.3-3.1-10.7-5.8-15.8-9C738.6,642.4,737.3,639.4,738,636.4z"></path>
		<path class="st9" d="M661.8,590.5c0,6-1,6.6-6.1,3.8c-4.3-2.5-8.6-5-13-7.4c-2.5-1.4-4.2-3.4-4.7-6.1c-0.4-2.6-1.4-5.7,0.8-7.6    c2.5-2.2,4.5,0.9,6.5,1.9c3.7,1.9,7.2,4.2,10.9,6.1C660.2,583.3,662.2,586.4,661.8,590.5z"></path>
		<path class="st7" d="M871,532.1c0.9,2.1,0.5,4.2-0.1,6.3c-0.2-0.2-0.4-0.3-0.6-0.4C870.5,536.1,870.8,534.1,871,532.1z"></path>
		<path class="st7" d="M615.9,564.3c-0.4,0.2-0.7,0.3-1.1,0.5c0.1-0.4,0.1-0.8,0.2-1.2C615.3,563.8,615.6,564,615.9,564.3z"></path>
		<path class="st9" d="M208.8,354.5c-20.6-11.8-41.2-23.6-61.8-35.4c-11.4-6.5-22.7-13.1-34.1-19.7c-1.4-0.8-3.1-1.3-3.1-3.5    c0-13.7,0-27.5,0-42.1c9.9,5.7,19.1,11,28.2,16.3c22.6,13,45.2,26.1,67.8,39.1c1.2,0.7,2.3,2,4,1.7c0.1,13.3,0.1,26.7,0.2,40    C210,352.3,210.1,353.6,208.8,354.5z"></path>
		<path class="st4" d="M262.6,364.7c2.7,0,11.1,6.8,11.5,9.3c0.2,1.2,0.3,2.4-0.6,3.3c-1.1,1-2.2,0.3-3.2-0.3c-3-2-6.8-3-8.9-6.2    c-0.9-1.4-1.3-3-0.7-4.7C261.1,365.2,261.7,364.7,262.6,364.7z"></path>
		<path class="st4" d="M293.4,513.7c-0.1,1.4-0.5,3.4-2.4,2.5c-3.7-1.7-7.7-3.2-10.2-6.7c-1.2-1.7-1.8-3.9-0.3-5.5    c1.6-1.7,3,0.3,4.3,1c2.2,1.2,4.3,2.4,6.4,3.8C292.6,509.9,293.3,511.7,293.4,513.7z"></path>
		<path class="st4" d="M255.1,364c-0.1,1.5-0.3,3.6-2.7,2.4c-3.4-1.7-7.1-3.1-9.6-6.1c-1.4-1.7-2.4-4-0.7-5.9c1.8-2.1,3.3,0.2,4.7,1    C253.6,359.1,255.1,360.7,255.1,364z"></path>
		<path class="st4" d="M293.4,401.9c-0.1,1.4-0.4,3.4-2.4,2.5c-3.7-1.7-7.7-3.2-10.3-6.6c-1.2-1.6-1.8-3.8-0.3-5.5    c1.6-1.8,3,0.2,4.3,0.9c2.2,1.1,4.3,2.4,6.4,3.8C292.6,398.1,293.2,399.8,293.4,401.9z"></path>
		<path class="st4" d="M300.7,386.8c2.5-0.2,11.2,6.6,11.7,9.1c0.2,1.3,0.4,2.7-0.9,3.6c-1.2,0.9-2.2-0.1-3.1-0.7    c-2.8-1.8-6.1-2.8-8.2-5.4c-1.2-1.5-1.6-3.3-1.1-5.2C299.2,387.4,299.7,386.9,300.7,386.8z"></path>
		<path class="st4" d="M236.1,352.9c-0.1,1.4-0.4,3.5-2.4,2.6c-3.7-1.8-7.8-3.2-10.3-6.7c-1.2-1.6-2-3.8-0.3-5.5    c1.6-1.8,3,0.2,4.3,0.9c2.2,1.1,4.4,2.4,6.4,3.8C235.3,349.1,236,350.9,236.1,352.9z"></path>
		<path class="st4" d="M255.1,395.6c-0.1,1.7-0.5,3.6-2.5,2.7c-3.7-1.8-7.7-3.2-10.2-6.7c-1.1-1.6-1.9-3.8-0.3-5.5    c1.6-1.7,3,0.3,4.3,1c2.2,1.1,4.3,2.4,6.4,3.8C254.4,392,255,393.7,255.1,395.6z"></path>
		<path class="st4" d="M312.5,413c-0.2,1.4-0.5,3.4-2.5,2.5c-3.4-1.6-7-3.2-9.7-5.9c-1.6-1.6-2.4-4.1-1.1-6c1.8-2.5,3.5,0.2,5.1,0.9    c2.1,1,4.1,2.2,5.9,3.6C311.8,409.2,312.4,411,312.5,413z"></path>
		<path class="st4" d="M255.1,379.8c-0.1,1.4-0.4,3.4-2.4,2.5c-3.7-1.7-7.7-3.2-10.3-6.7c-1.2-1.6-1.9-3.8-0.3-5.5    c1.6-1.8,3,0.2,4.3,0.9c2.2,1.1,4.3,2.4,6.4,3.8C254.4,376,255.1,377.7,255.1,379.8z"></path>
		<path class="st4" d="M223.9,374.5c3.1-0.3,11.9,6.8,12.1,9.5c0.2,2.6-0.5,4.7-3.6,2.7c-3.4-2.2-7.9-3-9.6-7.4    C222.1,377.4,221.7,375.4,223.9,374.5z"></path>
		<path class="st4" d="M274.2,406.8c0,1.9-0.7,3.5-3.2,2.2c-2.8-1.4-5.6-3-8.1-4.8c-2.1-1.6-3.4-4.2-1.9-6.6c1.8-3,3.8,0,5.3,0.9    C269.7,400.4,274,401.5,274.2,406.8z"></path>
		<path class="st4" d="M274.2,502.6c0,1.5-0.4,3.5-2.3,2.6c-3.8-1.8-8.1-3.2-10.5-7c-1-1.5-1.5-3.6-0.1-5.1c1.6-1.8,3,0.2,4.3,0.9    c2.2,1.1,4.3,2.4,6.4,3.8C273.5,498.8,274.1,500.5,274.2,502.6z"></path>
		<path class="st4" d="M236,400.5c-0.1,1.4-0.4,3.6-2.3,2.6c-3.8-1.8-8.1-3.2-10.6-7.1c-1-1.5-1.6-3.5-0.2-5.1    c1.6-1.8,3,0.1,4.3,0.8c2.2,1.1,4.4,2.4,6.4,3.8C235.2,396.7,236,398.5,236,400.5z"></path>
		<path class="st4" d="M243.9,481.3c3.5,2.8,8.7,3.5,10.8,8.1c0.7,1.5,1.1,3.3-0.4,4.6c-1.3,1.1-2.5,0-3.6-0.8c-3.3-2.3-8-3-9.1-7.8    C241.2,483.6,241.1,481.7,243.9,481.3z"></path>
		<path class="st4" d="M255.1,411.8c-0.1,1.4-0.6,3.3-2.5,2.3c-3.5-1.8-7.4-3.2-9.9-6.4c-1.2-1.6-2.1-3.7-0.7-5.5    c1.7-2.3,3.2,0,4.6,0.7c2.2,1.1,4.3,2.4,6.3,3.9C254.5,407.9,255.1,409.7,255.1,411.8z"></path>
		<path class="st4" d="M281.3,375.7c2.7-0.2,11.5,6.7,11.9,9.2c0.2,1.3,0.5,2.7-0.8,3.6c-1.2,0.8-2.2,0-3.2-0.7    c-2.9-1.9-6.6-2.7-8.4-5.9C279.5,379.8,278.5,377.4,281.3,375.7z"></path>
		<path class="st4" d="M236,368.7c-0.1,1.4-0.4,3.6-2.3,2.7c-3.8-1.7-8.1-3.2-10.6-7c-1-1.5-1.6-3.5-0.2-5.1c1.6-1.9,3,0.1,4.3,0.8    c2.2,1.1,4.3,2.4,6.4,3.8C235.2,364.9,235.9,366.6,236,368.7z"></path>
		<path class="st4" d="M236.1,480.4c-0.1,1.7-0.5,3.8-2.8,2.6c-3.4-1.7-7.1-3.1-9.6-6.1c-1.4-1.7-2.4-4-0.7-5.9    c1.8-2.1,3.3,0.2,4.7,1C231.1,474.1,235.6,475.2,236.1,480.4z"></path>
		<path class="st4" d="M293.3,417.7c-0.1,1.6-0.4,3.6-2.7,2.5c-3.4-1.6-7-3.1-9.6-6c-1.5-1.7-2.3-4-0.8-5.9c1.7-2.1,3.3,0.2,4.7,1    C288.4,411.3,292.9,412.3,293.3,417.7z"></path>
		<path class="st4" d="M298.8,517.3c0.2-1.5,0.2-3.8,3-2.4c2.9,1.5,5.9,3.1,8.5,5.1c2,1.6,3.2,4.3,1.6,6.6c-1.7,2.4-3.6-0.2-5.1-1    C303.5,523.6,299.2,522.5,298.8,517.3z"></path>
		<path class="st4" d="M274.2,422.7c-0.1,1.8-0.7,3.5-3.2,2.2c-2.8-1.4-5.6-3-8.1-4.9c-2.1-1.6-3.4-4.2-1.9-6.6    c1.9-3,3.8,0.1,5.3,0.9C269.7,416.2,274,417.4,274.2,422.7z"></path>
		<path class="st4" d="M293.4,433.7c-0.1,1.6-0.4,3.7-3.1,2.3c-2.9-1.5-5.9-3.1-8.5-5.1c-2-1.6-3.2-4.4-1.5-6.6    c1.8-2.4,3.6,0.3,5,1.1C288.7,427.3,293,428.4,293.4,433.7z"></path>
		<path class="st4" d="M300.4,418.5c3.2,0.1,11.4,6.5,11.9,8.9c0.3,1.3,0.5,2.7-0.6,3.7c-1.1,1-2.2,0.2-3.2-0.4    c-3.1-2.1-7.2-2.9-9-6.6C298.5,422.1,297.9,419.7,300.4,418.5z"></path>
		<path class="st4" d="M261.9,380.6c3-0.2,11.8,6.7,12.2,9.1c0.2,1.3,0.5,2.7-0.8,3.6c-1.2,0.8-2.2,0-3.2-0.6    c-2.9-1.9-6.5-2.8-8.5-5.8C260.2,384.6,259.7,382.3,261.9,380.6z"></path>
		<path class="st4" d="M300.6,434.4c2.8-0.2,11.5,6.8,11.7,9.6c0.2,2.7-0.5,4.6-3.6,2.7c-3-1.8-6.4-2.9-8.7-5.6    c-1.2-1.5-1.6-3.3-1.2-5.1C299.1,435.1,299.7,434.5,300.6,434.4z"></path>
		<path class="st3" d="M501.9,594.2c-0.4-5.5,0.7-10.9,2-16.2c4.8-19.4,22.8-26.7,39.9-16.3c11.2,6.8,19.6,16.3,26.4,27.3    c10.1,16.3,15.7,34.1,16.3,53.2c0.3,10-1.4,20-7.8,28.3c-8.9,11.6-24,12.3-37.8,2.2c-20.5-15.1-31.3-36.1-37-60.2    C502.5,606.5,501.5,600.4,501.9,594.2z M511.7,599.2c6.1-0.5,11.5-1,17-1.4c2.3-0.2,3.3-1.3,3.1-3.5c-0.2-2.7-2-2-3.6-1.8    c-4.1,0.5-8.2,0.9-12.3,1.5c-3,0.4-7-0.8-8.6,2.3c-1.8,3.4,2.1,5.6,3.9,7.9c6.4,8.4,13.1,16.5,19.6,24.8c0.5-0.3,1-0.7,1.5-1    C527.9,617,517.8,609.9,511.7,599.2z M557.1,607.2c-1.6,5.7,2.4,8,4.7,11c4.9,6.4,10,12.5,15.5,19.3c-6.5,0.5-11.9,1-17.3,1.5    c-1.8,0.1-3.3,0.3-3.2,2.7c0.1,2.5,1.7,2.5,3.4,2.3c5.8-0.6,11.6-1.1,17.3-1.8c4.6-0.6,5.5-2.4,2.7-6    C572.7,626.7,565.1,617.3,557.1,607.2z M537.2,636c1.6,0.2,2-1,2.4-2.1c0.7-1.9,1.3-3.8,2-5.6c3.6-10.4,7.2-20.7,10.8-31.1    c0.6-1.6,1.1-3.4-1.2-4.2c-1.8-0.6-2.4,0.7-2.8,2c-4.4,12.6-8.7,25.1-13.1,37.7C534.7,634.7,535.7,635.5,537.2,636z"></path>
		<path class="st0" d="M215.9,273.4c-6.9,2.4-6.2,8.1-6,13.6c-5.7-1.9-10.5-5.6-15.7-8.5c-31.3-17.9-62.4-36-93.7-54    c-1.4-0.8-3-1.3-4.4-2.1c-2.1-1.2-4.2-2.4-4.2-5.5c0.2-12.1,0.2-24.2,0.3-36.4c40,23.1,80,46.2,120,69.3    c11.4,6.6,22.6,13.4,34.2,19.5c5.6,2.9,8,6.5,6.6,12.5c-7.4-4.4-14.8-8.7-22.2-13.1c-3.1-1.9-5.9-1.4-8.8,0.6    C220.1,270.8,218,272.1,215.9,273.4z M121.6,216.3c-0.7-3.2-1.6-6.6-5.5-7.3c-2-0.3-2.7,1.8-2.5,3.5c0.3,3.4,1.5,6.8,5.2,7.7    C121.2,220.8,121.5,218.4,121.6,216.3z M110.4,210.1c-0.4-3.2-1.4-6.4-5.1-7.4c-2.1-0.6-2.7,1.4-2.9,3.2c-0.3,3.3,2.9,8.1,5.4,8    C110.1,213.8,110.3,212.1,110.4,210.1z M124.7,219.4c0.7,3.2,1.4,6.6,5.4,7.2c2.1,0.3,2.7-1.7,2.6-3.4c-0.3-3.4-1.4-6.8-5.2-7.6    C125.1,215,124.9,217.4,124.7,219.4z"></path>
		<path class="st1" d="M499.8,212.5c-5,10.6-11.5,20.4-17.2,30.6c-6.8,12.3-13.9,24.4-20.8,36.6c-7.7-4.4-15.4-8.8-23-13.2    c3-7.4,7.5-13.9,11.5-20.8c8.9-15.5,18-30.9,27-46.3C485.3,202.9,493.1,206.8,499.8,212.5z"></path>
		<path class="st6" d="M275.1,671.8c-1.9,3.7-5.2,3.7-8.5,2.8c-4.5-1.2-7.8-0.3-10.5,3.8c-1.6,2.4-1.8,3.2,0.8,4.7    c7.2,4,7.1,4.2-0.2,8.5c-1.1,0.7-2.4,1.1-3.6,1.6c-1.2-6.4-4.6-12.5-3.4-19.3c3,0.4,5.2-0.8,7.7-2.6c4.4-3.2,9.3-5.6,14-8.4    C272.6,666,274.8,668.5,275.1,671.8z"></path>
		<path class="st9" d="M180.2,648.9c-0.1-7.8,0.1-8.1,6.8-8c1,0.1,2.2,0.3,2.5,1.3c2.8,9,9.4,14.8,17,19.7c-0.5,0.6-0.6,0.8-0.9,1    c-6.7,4.3-12.6,0.9-18.5-1.9c0.3-1,0.6-2,0.9-3c3.6-0.4,4.4-1.9,2.5-5.2C188.1,648.5,184,649.2,180.2,648.9z"></path>
		<path class="st7" d="M250.9,667.6c-4.8-1.1-8.5-4.4-12.6-6.6c0.9-2.3,3.1-2.3,4.2-3.8c3.3,0.6,5.3,3.8,8.5,4.7    c0,1.7,0.1,3.4,0.1,5.2l-0.2,0.2L250.9,667.6z"></path>
		<path class="st1" d="M180.2,648.9c3.8,0.3,7.9-0.5,10.3,3.9c1.9,3.3,1.1,4.8-2.5,5.2C179.5,657.9,179.9,659.7,180.2,648.9z"></path>
		<path class="st4" d="M226.5,638c5.7-1.1,10,3.2,15.2,4.1c-1.1,0.9-2.2,1.8-3.2,2.7C234.2,643.1,229.9,641.3,226.5,638z"></path>
		<path class="st5" d="M246.9,640c5.9,0.1,6.3,0.7,4.1,6.3c-3.4-0.4-6.7-0.8-10.1-1.2c1.3-1.9,4.2-1.7,5.1-4.1c0,0-0.1,0.1-0.1,0.1    c0.4-0.4,0.7-0.7,1.1-1.1C247,639.9,246.9,640,246.9,640z"></path>
		<path class="st6" d="M212.5,522.7c-0.4-0.5-1.8-0.5-1.1-1.4c0.5-0.7,1.4,0,1.9,0.5C213.1,522,212.8,522.4,212.5,522.7z"></path>
		<path class="st10" d="M437.6,322.5c-0.1,0.6-0.3,1.1-0.4,1.7c-0.3,0.1-0.5,0.2-0.6,0.5c-1.1-2.5-2.1-5-5.1-5.9    c-1.1-0.4-2-1.2-2.3-2.4c-1.7-8.7-3.5-17.3-5.2-26c4.2-6.6,8.3-13.3,11.7-20.4c0.5-1.1,1-1,1.8-0.7c0.1,4.5-1.1,9.5,5.2,11.2    c1.3,0.4,1.3,1.7,1.3,2.9c-0.1,9.2-0.2,18.5-0.3,27.7C441.2,314.8,438.7,318.2,437.6,322.5z"></path>
		<path class="st11" d="M410.2,315.2c0.2,0.3,0.4,0.5,0.5,0.8c0,0.1-0.1,0.3-0.2,0.4c-0.2-0.3-0.3-0.5-0.4-0.8    C410,315.5,410.2,315.3,410.2,315.2z"></path>
		<path class="st0" d="M669,248.6c-0.3,2-0.5,4.2-1.1,6.2c-2.1,7.2-7.7,9.5-14.4,6c-10.6-5.5-18.7-24.3-15.5-35.9    c2.2-7.8,8.6-10.5,15.4-5.9C663.8,226,667.9,236.5,669,248.6z"></path>
		<path class="st10" d="M283.7,328.5c-0.3,0.5-0.6,1.3-0.7,1.3c-0.8-0.1-1.6-0.3-2.2-0.7c-7.6-4.4-15.3-8.8-22.9-13.2    c-2-1.2-4-2.4-5.9-3.8c-0.6-0.5-1-1.3-0.5-2.2c0.5-0.7,1.1-0.5,1.7-0.2c9.6,5.6,19.3,11.2,28.9,16.8    C282.8,327,283.2,327.8,283.7,328.5z"></path>
		<path class="st12" d="M511.7,599.2c6.1,10.7,16.2,17.7,20.5,28.7c-0.5,0.3-1,0.7-1.5,1c-6.6-8.2-13.2-16.4-19.6-24.8    c-1.8-2.4-5.7-4.5-3.9-7.9c1.6-3.1,5.6-1.9,8.6-2.3c4.1-0.5,8.2-1,12.3-1.5c1.6-0.2,3.4-0.9,3.6,1.8c0.2,2.3-0.8,3.4-3.1,3.5    C523.2,598.2,517.8,598.7,511.7,599.2z"></path>
		<path class="st12" d="M557.1,607.2c8,10,15.6,19.4,23,29c2.8,3.6,2,5.4-2.7,6c-5.8,0.8-11.5,1.3-17.3,1.8    c-1.7,0.2-3.4,0.2-3.4-2.3c-0.1-2.4,1.4-2.6,3.2-2.7c5.4-0.4,10.9-0.9,17.3-1.5c-5.5-6.8-10.6-12.9-15.5-19.3    C559.5,615.3,555.5,612.9,557.1,607.2z"></path>
		<path class="st12" d="M537.2,636c-1.5-0.6-2.5-1.3-1.8-3.3c4.4-12.5,8.7-25.1,13.1-37.7c0.5-1.3,1.1-2.6,2.8-2    c2.2,0.8,1.7,2.6,1.2,4.2c-3.6,10.4-7.2,20.7-10.8,31.1c-0.7,1.9-1.3,3.8-2,5.6C539.2,635,538.8,636.2,537.2,636z"></path>
		<path class="st11" d="M408.7,265.5c1.2,6.7,2.5,13.4,3.9,21c-2.9-1.7-5.1-3-7.3-4.3c-0.9-0.6-1.4-1.4-1-2.5    c1.3-4.7,2.5-9.5,3.8-14.2C408.2,265.4,408.4,265.5,408.7,265.5z"></path>
		<path class="st11" d="M419.5,268.8c-0.3-0.4-0.6-0.8-0.1-1.2c0.2-0.1,0.6,0.2,0.9,0.2C420.1,268.2,419.8,268.5,419.5,268.8z"></path>
		<path class="st11" d="M457.5,289.8c9.1,3.7,12.9,9.3,12.3,17.6c-0.2,2.5-0.5,5.2-3.6,5.7c-2.7,0.5-8.6-3.2-8.6-5.4    C457.4,301.8,457.5,295.9,457.5,289.8z"></path>
		<path class="st11" d="M437.6,322.5c1.1-4.3,3.6-7.7,6.2-11.1c0,4.5,0,9.1,0,13.7C441.2,325.3,439.7,323.1,437.6,322.5z"></path>
	</g>
</g>
</svg>