<?xml version="1.0" encoding="UTF-8"?>
<svg width="866px" height="730px" viewBox="0 0 866 730" xmlns="http://www.w3.org/2000/svg" xmlns:xlink="http://www.w3.org/1999/xlink" version="1.1">
 <!-- Generated by Pixelmator Pro 2.2 -->
 <path id="Path" d="M1026.02 585.22 C1026.02 607.908 931.391 626.3 814.66 626.3 697.929 626.3 603.3 607.908 603.3 585.22 603.3 562.532 697.929 544.14 814.66 544.14 931.391 544.14 1026.02 562.532 1026.02 585.22 Z" fill="#6c63ff" fill-opacity="1" stroke="none"/>
 <g id="group">
  <path id="Path-1" d="M633.62 103.56 C630.77 104.37 627.28 106.48 625.56 112.25 622.19 123.56 630.02 131.25 627.44 143.04 626.724 146.167 625.361 149.11 623.44 151.68 620.29 155.95 616.87 157.97 613.55 160.96 609.339 164.78 606.321 169.735 604.86 175.23 603.259 181.295 603.125 187.653 604.47 193.78 605.65 198.9 607.66 202.63 609.42 206.78 611.608 212.073 613.318 217.552 614.53 223.15 615.195 225.876 615.57 228.665 615.65 231.47 615.6 235.197 615.266 238.914 614.65 242.59 L609.86 276.01 C609.132 280.38 608.695 284.793 608.55 289.22 608.613 293.657 609.125 298.076 610.08 302.41 611.76 311.25 613.57 320.41 617.42 325.09 621.27 329.77 627.83 328.09 631.86 318.62 635.69 309.56 635.78 297.47 639.16 287.79 644.49 272.54 655.08 270.49 660.96 255.94 666.6 241.94 664.87 224.86 667.73 208.94 669.73 197.53 674.14 187.13 676.73 175.86 680.45 159.63 680.08 142.78 677.11 130.3 674.851 120.046 669.965 110.555 662.93 102.76 660.44 100.01 657.77 97.56 654.64 97.31 651.31 97.05 648.4 101.24 645.11 102.5 641.31 103.99 637.49 102.46 633.62 103.56 Z" fill="#6c63ff" fill-opacity="1" stroke="none"/>
  <path id="Path-2" d="M651.65 98.16 C651.65 98.16 646.01 242.5 622.29 327.61" fill="none" stroke="#535461" stroke-width="2" stroke-opacity="1" stroke-linejoin="round" stroke-linecap="round"/>
  <path id="Path-3" d="M625.42 112.93 C625.42 112.93 650.77 136.01 645.96 179.93" fill="none" stroke="#535461" stroke-width="2" stroke-opacity="1" stroke-linejoin="round" stroke-linecap="round"/>
  <path id="Path-4" d="M604.15 178.61 C604.15 178.61 645.76 186.98 642.67 211.87" fill="none" stroke="#535461" stroke-width="2" stroke-opacity="1" stroke-linejoin="round" stroke-linecap="round"/>
  <path id="Path-5" d="M677.18 130 C677.18 130 660.34 144.74 645.34 186.49" fill="none" stroke="#535461" stroke-width="2" stroke-opacity="1" stroke-linejoin="round" stroke-linecap="round"/>
  <path id="Path-6" d="M660.73 256.18 C660.73 256.18 649.24 265.18 640.02 233.67" fill="none" stroke="#535461" stroke-width="2" stroke-opacity="1" stroke-linejoin="round" stroke-linecap="round"/>
  <path id="Path-7" d="M611.15 274.59 C611.15 274.59 634.58 271.53 636.74 256.86" fill="none" stroke="#535461" stroke-width="2" stroke-opacity="1" stroke-linejoin="round" stroke-linecap="round"/>
 </g>
 <path id="Path-8" d="M690.26 6.75 C684.46 7.61 677.48 10.3 674.61 18.59 668.98 34.85 686.09 47.16 682.15 64.15 680.974 68.826 678.499 73.073 675.01 76.4 669.01 82.31 662.15 84.89 655.65 88.9 649.15 92.91 642.4 99.22 639.35 108.9 636.42 118.21 637.69 128.49 640.74 136.17 643.79 143.85 648.4 149.58 652.52 155.9 657.527 163.679 661.712 171.957 665.01 180.6 666.673 184.54 667.79 188.688 668.33 192.93 668.86 198.13 668.19 203.72 667.52 209.19 L661.57 257.93 C660.78 264.41 659.98 270.99 660.43 277.23 660.94 284.42 663.07 290.7 665.17 296.83 669.69 310.05 674.53 323.83 683.06 331.11 691.59 338.39 704.97 336.83 712.18 323.29 719.04 310.4 717.78 292.61 723.63 278.76 732.85 256.93 754.53 255.16 764.96 234.44 774.96 214.56 769.37 189.13 773.39 166.03 776.27 149.48 784.07 134.68 788.07 118.39 793.84 94.92 791.07 70.07 783.45 51.39 775.83 32.71 763.78 19.39 750.85 9.16 745.37 4.81 739.56 0.88 733.05 0.16 726.13 -0.61 720.6 5.21 713.95 6.68 706.21 8.29 698.13 5.58 690.26 6.75 Z" fill="#6c63ff" fill-opacity="1" stroke="none"/>
 <path id="Path-9" d="M726.94 0.93 C726.94 0.93 732.4 212.82 693.38 335.35" fill="none" stroke="#535461" stroke-width="2" stroke-opacity="1" stroke-linejoin="round" stroke-linecap="round"/>
 <path id="Path-10" d="M674.39 19.61 C674.39 19.61 729.59 56.61 724.86 120.77" fill="none" stroke="#535461" stroke-width="2" stroke-opacity="1" stroke-linejoin="round" stroke-linecap="round"/>
 <path id="Path-11" d="M638.16 113.78 C638.16 113.78 725.28 131.04 721.84 167.32" fill="none" stroke="#535461" stroke-width="2" stroke-opacity="1" stroke-linejoin="round" stroke-linecap="round"/>
 <path id="Path-12" d="M783.55 50.85 C783.55 50.85 750.44 70.56 724.36 130.26" fill="none" stroke="#535461" stroke-width="2" stroke-opacity="1" stroke-linejoin="round" stroke-linecap="round"/>
 <path id="Path-13" d="M764.44 234.72 C764.44 234.72 741.74 246.72 718.91 199.11" fill="none" stroke="#535461" stroke-width="2" stroke-opacity="1" stroke-linejoin="round" stroke-linecap="round"/>
 <path id="Path-14" d="M664.01 255.93 C664.01 255.93 712.14 254.2 714.88 232.85" fill="none" stroke="#535461" stroke-width="2" stroke-opacity="1" stroke-linejoin="round" stroke-linecap="round"/>
 <path id="Path-15" d="M67.25 578.59 C67.25 578.59 75.63 589.59 63.38 606.09 51.13 622.59 41.01 636.61 45.12 646.93 45.12 646.93 63.6 616.2 78.64 615.77 93.68 615.34 83.8 597.07 67.25 578.59 Z" fill="#6c63ff" fill-opacity="1" stroke="none"/>
 <path id="Path-16" d="M67.25 578.59 C67.998 579.647 68.59 580.805 69.01 582.03 83.69 599.27 91.5 615.36 77.4 615.77 64.26 616.15 48.5 639.64 44.72 645.58 44.845 646.038 44.995 646.489 45.17 646.93 45.17 646.93 63.65 616.2 78.69 615.77 93.73 615.34 83.8 597.07 67.25 578.59 Z" fill="#000000" fill-opacity="1" stroke="none"/>
 <path id="Path-17" d="M82.83 592.56 C82.83 596.42 82.4 599.56 81.83 599.56 81.26 599.56 80.83 596.43 80.83 592.56 80.83 588.69 81.37 590.56 81.9 590.56 82.43 590.56 82.83 588.7 82.83 592.56 Z" fill="#ffd037" fill-opacity="1" stroke="none"/>
 <path id="Path-18" d="M88.18 597.16 C84.79 599.01 81.84 600.16 81.59 599.65 81.34 599.14 83.87 597.3 87.26 595.46 90.65 593.62 89.31 594.96 89.57 595.46 89.83 595.96 91.56 595.31 88.18 597.16 Z" fill="#ffd037" fill-opacity="1" stroke="none"/>
 <path id="Path-19" d="M23.01 578.59 C23.01 578.59 14.63 589.59 26.88 606.09 39.13 622.59 49.23 636.6 45.14 646.92 45.14 646.92 26.66 616.19 11.62 615.76 -3.42 615.33 6.44 597.07 23.01 578.59 Z" fill="#6c63ff" fill-opacity="1" stroke="none"/>
 <path id="Path-20" d="M23.01 578.59 C22.28 579.65 21.704 580.808 21.3 582.03 6.62 599.27 -1.19 615.36 12.91 615.77 26.05 616.15 41.81 639.64 45.59 645.58 45.465 646.038 45.315 646.489 45.14 646.93 45.14 646.93 26.66 616.2 11.62 615.77 -3.42 615.34 6.44 597.07 23.01 578.59 Z" fill="#000000" fill-opacity="1" stroke="none"/>
 <path id="Path-21" d="M7.41 592.56 C7.41 596.42 7.84 599.56 8.41 599.56 8.98 599.56 9.41 596.43 9.41 592.56 9.41 588.69 8.87 590.56 8.34 590.56 7.81 590.56 7.41 588.7 7.41 592.56 Z" fill="#ffd037" fill-opacity="1" stroke="none"/>
 <path id="Path-22" d="M2.06 597.16 C5.45 599.01 8.4 600.16 8.65 599.65 8.9 599.14 6.37 597.3 2.98 595.46 -0.41 593.62 0.93 594.96 0.67 595.46 0.41 595.96 -1.32 595.31 2.06 597.16 Z" fill="#ffd037" fill-opacity="1" stroke="none"/>
 <path id="Path-23" d="M10.08 645.49 C10.08 645.49 33.51 644.77 40.57 639.74 47.63 634.71 76.57 628.74 78.36 636.74 80.15 644.74 113.57 676.85 87.12 677.06 60.67 677.27 25.66 672.94 18.61 668.65 11.56 664.36 10.08 645.49 10.08 645.49 Z" fill="#a8a8a8" fill-opacity="1" stroke="none"/>
 <path id="Path-24" d="M87.59 674.28 C61.14 674.49 26.13 670.16 19.08 665.87 13.71 662.6 11.57 650.87 10.86 645.46 L10.08 645.46 C10.08 645.46 11.56 664.36 18.61 668.65 25.66 672.94 60.67 677.28 87.12 677.06 94.76 677 97.39 674.28 97.25 670.26 96.19 672.72 93.28 674.24 87.59 674.28 Z" fill="#000000" fill-opacity="1" stroke="none"/>
 <path id="Path-25" d="M146.73 480.32 C178.55 520.78 166.19 579.89 145.97 627.22 139.2 643.07 131.54 659.84 134.4 676.83 137.89 697.61 156.4 712.83 175.92 720.83 211.42 735.51 253.92 732.01 286.53 711.72 314.72 694.18 334.91 665.66 363.58 648.92 411.58 620.92 472.64 631.49 524.74 650.78 561.6 664.43 601.9 682.19 638.53 667.92 664.3 657.92 682.12 633.45 691.83 607.55 696.52 595.04 699.92 581.55 708.83 571.55 714.15 565.66 721.09 561.47 728.21 557.95 793.21 525.74 875.21 542.95 938.29 507.27 980.9 483.15 1008.18 437.64 1020.29 390.19 1032.4 342.74 1030.96 292.98 1027.89 244.12 1025.71 209.39 1021.8 172.32 999.61 145.51 976.14 117.16 935.85 106.61 899.44 112 863.03 117.39 830.01 136.69 801.01 159.31 764.72 187.58 731.07 222.79 686.51 234.25 656.17 242.05 624.25 237.78 592.95 236.31 540.63 233.84 488.3 239.31 436.27 245.31 386.46 251.07 336.27 257.41 288.84 273.61 255.26 285.08 228.34 305.89 196.63 320.43 175.96 329.91 153.42 332.53 133.86 344.6 109.75 359.47 87.66 385.34 93.86 415.6 99.68 444.41 129.83 458.85 146.73 480.32 Z" fill="#6c63ff" fill-opacity="1" stroke="none"/>
 <path id="Path-26" d="M980.02 439.22 C980.02 461.908 788.546 480.3 552.35 480.3 316.154 480.3 124.68 461.908 124.68 439.22 124.68 416.532 316.154 398.14 552.35 398.14 788.546 398.14 980.02 416.532 980.02 439.22 Z" fill="#6c63ff" fill-opacity="1" stroke="none"/>
 <path id="Path-27" d="M435.02 676.22 C435.02 698.908 340.391 717.3 223.66 717.3 106.929 717.3 12.3 698.908 12.3 676.22 12.3 653.532 106.929 635.14 223.66 635.14 340.391 635.14 435.02 653.532 435.02 676.22 Z" fill="#6c63ff" fill-opacity="1" stroke="none"/>
 <path id="Path-28" d="M439.72 426.41 L436.37 431.28 C436.37 431.28 440.02 436.15 440.37 436.76 440.72 437.37 451.02 436.46 451.02 436.46 L451.93 432.81 450.41 428.55 Z" fill="#e6e6f0" fill-opacity="1" stroke="none"/>
 <path id="Path-29" d="M327.09 423.67 L320.39 424.88 324.65 433.11 329.22 435.54 333.48 438.58 334.7 435.24 331.65 428.84 327.09 423.67 Z" fill="#fdc2cc" fill-opacity="1" stroke="none"/>
 <path id="Path-30" d="M436.68 344.52 C436.68 344.52 472.3 353.04 478.99 362.52 478.99 362.52 485.08 367.7 478.99 377.13 472.9 386.56 464.38 407.88 464.38 407.88 464.38 407.88 458.29 428.58 455.86 430.1 453.43 431.62 439.42 432.84 438.2 427.1 438.2 427.1 446.11 414.62 446.11 408.83 446.11 403.04 459.2 375.65 459.2 375.65 459.2 375.65 429.37 372.3 419.93 374.43 410.49 376.56 424.2 341.17 436.68 344.52 Z" fill="#565171" fill-opacity="1" stroke="none"/>
 <path id="Path-31" d="M436.68 344.52 C436.68 344.52 472.3 353.04 478.99 362.52 478.99 362.52 485.08 367.7 478.99 377.13 472.9 386.56 464.38 407.88 464.38 407.88 464.38 407.88 458.29 428.58 455.86 430.1 453.43 431.62 439.42 432.84 438.2 427.1 438.2 427.1 446.11 414.62 446.11 408.83 446.11 403.04 459.2 375.65 459.2 375.65 459.2 375.65 429.37 372.3 419.93 374.43 410.49 376.56 424.2 341.17 436.68 344.52 Z" fill="#000000" fill-opacity="1" stroke="none"/>
 <path id="Path-32" d="M429.37 352.74 C429.3 354.51 429.11 356.5 428.84 358.64 426.89 374.14 420.54 397.19 420.54 397.19 420.54 397.19 414.15 410.89 412.32 419.72 410.49 428.55 398.01 430.72 398.01 430.72 398.01 430.72 363.91 434.72 356.91 433.16 349.91 431.6 338.91 437.73 333.47 436.81 328.03 435.89 324.64 423.11 324.64 423.11 334.082 423.165 343.425 421.194 352.04 417.33 366.04 410.94 386.14 413.98 386.14 413.98 389.17 413.1 391.703 411.009 393.14 408.2 395.27 403.63 395.27 375.93 394.66 374.1 390.66 362.1 390.99 354.4 392.14 349.91 392.525 347.949 393.391 346.114 394.66 344.57 Z" fill="#565171" fill-opacity="1" stroke="none"/>
 <path id="Path-33" d="M429.37 352.74 C429.3 354.51 429.11 356.5 428.84 358.64 425.78 358.88 417.2 359.11 410.84 355.18 404.84 351.5 396.11 350.25 392.18 349.86 392.565 347.899 393.431 346.064 394.7 344.52 Z" fill="#000000" fill-opacity="1" stroke="none"/>
 <path id="Path-34" d="M433.58 348.93 C432.16 352.93 429.98 357.62 429.98 357.62 429.98 357.62 418.72 359.14 410.8 354.27 402.88 349.4 390.1 348.79 390.1 348.79 392.17 347.52 393.57 343.66 394.44 340.28 394.926 338.369 395.306 336.433 395.58 334.48 395.58 334.48 433.02 342.09 434.58 343.31 435.16 343.79 434.54 346.21 433.58 348.93 Z" fill="#e6e6f0" fill-opacity="1" stroke="none"/>
 <path id="Path-35" d="M500.3 220.62 L454.89 248.03 450.38 250.75 450.38 237.36 453.51 235.86 491.78 217.57 C491.78 217.57 493.61 184.39 498.48 189.57 503.35 194.75 500.3 220.62 500.3 220.62 Z" fill="#fdc2cc" fill-opacity="1" stroke="none"/>
 <path id="Path-36" d="M454.89 248.03 L450.38 250.75 450.38 237.36 453.51 235.86 C453.717 239.941 454.178 244.006 454.89 248.03 Z" fill="#000000" fill-opacity="1" stroke="none"/>
 <path id="Path-37" d="M419.94 252.93 L452.51 234.06 C452.51 234.06 453.12 252.33 456.77 255.06 456.77 255.06 443.38 259.06 438.2 267.54 Z" fill="#b45181" fill-opacity="1" stroke="none"/>
 <path id="Path-38" d="M419.94 252.93 L452.51 234.06 C452.51 234.06 453.12 252.33 456.77 255.06 456.77 255.06 443.38 259.06 438.2 267.54 Z" fill="#000000" fill-opacity="1" stroke="none"/>
 <path id="Path-39" d="M500.01 269.02 C500.01 269.02 484.52 275.77 474.26 278.25 471.951 278.946 469.537 279.224 467.13 279.07 460.13 277.85 468.96 269.07 468.96 269.07 L472.64 268.5 492.4 265.42 C492.4 265.42 494.53 234.98 498.18 237.42 501.83 239.86 500.01 269.02 500.01 269.02 Z" fill="#fdc2cc" fill-opacity="1" stroke="none"/>
 <path id="Path-40" d="M434.55 241.62 C434.55 241.62 421.46 251.36 426.33 263.54 431.2 275.72 401.06 256.23 401.06 256.23 401.06 256.23 410.8 241.62 412.93 230.66 415.06 219.7 434.55 241.62 434.55 241.62 Z" fill="#fdc2cc" fill-opacity="1" stroke="none"/>
 <path id="Path-41" d="M433.58 348.93 C427.918 346.798 422.001 345.419 415.98 344.83 407.18 343.83 399.12 342.14 394.45 340.28 394.936 338.369 395.316 336.433 395.59 334.48 395.59 334.48 433.03 342.09 434.59 343.31 435.16 343.79 434.54 346.21 433.58 348.93 Z" fill="#000000" fill-opacity="1" stroke="none"/>
 <path id="Path-42" d="M474.25 278.25 C471.941 278.946 469.527 279.224 467.12 279.07 460.12 277.85 468.95 269.07 468.95 269.07 L472.63 268.5 C474.17 270.87 475.74 274.57 474.25 278.25 Z" fill="#000000" fill-opacity="1" stroke="none"/>
 <path id="Path-43" d="M413.24 247.1 C413.24 247.1 401.37 246.8 397.11 251.67 392.85 256.54 393.76 269.67 393.76 269.67 393.76 269.67 392.87 295.96 399.54 310.67 399.76 311.145 399.785 311.687 399.61 312.18 399.54 312.36 399.54 312.25 399.54 312.25 399.54 312.25 395.28 331.43 391.02 334.78 386.76 338.13 400.15 342.09 416.02 343.91 431.89 345.73 438.24 350.3 438.24 350.3 438.24 350.3 440.98 347.3 441.24 340.56 441.5 333.82 437.01 284.85 437.01 284.85 437.01 284.85 453.75 289.11 463.8 283.94 463.8 283.94 468.37 286.38 472.63 279.68 476.89 272.98 469.63 265.68 469.63 265.68 469.63 265.68 462.93 272.38 444.36 263.55 425.79 254.72 419.01 246.8 413.24 247.1 Z" fill="#b45181" fill-opacity="1" stroke="none"/>
 <path id="Path-44" d="M322.22 424.28 L318.57 424.28 318.57 429.46 322.22 437.68 C322.22 437.68 327.09 438.59 327.4 438.59 327.71 438.59 331.66 437.68 331.66 437.68 L332.88 435.55 C332.88 435.55 319.48 430.36 322.22 424.28 Z" fill="#e6e6f0" fill-opacity="1" stroke="none"/>
 <path id="Path-45" d="M436.68 429.15 L431.2 441.33 454.34 452.33 472.61 452.94 C472.61 452.94 474.13 448.68 468.04 446.55 L463.17 445.64 C463.17 445.64 456.78 434.07 456.17 428.64 456.17 428.64 450.08 429.86 449.17 434.42 449.16 434.32 440.64 438.58 436.68 429.15 Z" fill="#b45181" fill-opacity="1" stroke="none"/>
 <path id="Path-46" d="M319.48 423.06 L317.62 424.58 309.44 431.28 328.31 456.28 C328.31 456.28 338.96 460.85 343.84 456.28 343.84 456.28 346.84 453.28 340.19 450.8 340.19 450.8 335.01 451.71 335.01 446.54 335.01 441.37 336.23 435.89 338.01 434.67 338.01 434.67 333.44 433.15 332.23 434.37 331.299 435.396 330.481 436.519 329.79 437.72 329.79 437.72 318.87 433.41 319.48 423.06 Z" fill="#b45181" fill-opacity="1" stroke="none"/>
 <path id="Path-47" d="M412.33 231.27 C412.021 232.814 411.613 234.338 411.11 235.83 414.398 243.739 423.38 247.598 431.38 244.54 432.183 243.712 433.041 242.94 433.95 242.23 433.95 242.23 414.46 220.31 412.33 231.27 Z" fill="#000000" fill-opacity="1" stroke="none"/>
 <path id="Path-48" d="M410.65 271.93 C410.65 271.93 420.09 284.41 433.79 284.72" fill="#000000" fill-opacity="1" stroke="none"/>
 <g id="group-1">
  <path id="Path-49" d="M467.07 284.15 C466.878 284.096 466.69 284.026 466.51 283.94 466.217 284.093 465.917 284.237 465.61 284.37 466.104 284.36 466.595 284.286 467.07 284.15 Z" fill="#000000" fill-opacity="1" stroke="none"/>
  <path id="Path-50" d="M470.31 266.93 C469.979 266.505 469.625 266.097 469.25 265.71 469.25 265.71 467.25 267.71 462.31 268.09 465.031 268.36 467.777 267.962 470.31 266.93 Z" fill="#000000" fill-opacity="1" stroke="none"/>
  <path id="Path-51" d="M439.72 284.85 L439.78 285.5 C443.796 286.244 447.877 286.579 451.96 286.5 447.836 286.35 443.737 285.797 439.72 284.85 Z" fill="#000000" fill-opacity="1" stroke="none"/>
  <path id="Path-52" d="M418.72 343.93 C402.89 342.1 389.5 338.15 393.72 334.8 397.94 331.45 402.24 312.27 402.24 312.27 402.24 312.27 402.24 312.38 402.31 312.2 402.485 311.707 402.46 311.165 402.24 310.69 395.57 295.94 396.46 269.69 396.46 269.69 396.46 269.69 395.55 256.6 399.81 251.69 402.98 248.06 410.37 247.31 413.94 247.16 413.607 247.134 413.273 247.134 412.94 247.16 412.94 247.16 401.07 246.86 396.81 251.73 392.55 256.6 393.46 269.73 393.46 269.73 393.46 269.73 392.57 296.02 399.24 310.73 399.46 311.205 399.485 311.747 399.31 312.24 399.24 312.42 399.24 312.31 399.24 312.31 399.24 312.31 395.01 331.43 390.71 334.78 386.41 338.13 399.84 342.09 415.71 343.91 431.58 345.73 437.93 350.3 437.93 350.3 438.249 349.918 438.53 349.506 438.77 349.07 435.68 347.58 429.32 345.13 418.72 343.93 Z" fill="#000000" fill-opacity="1" stroke="none"/>
 </g>
 <path id="Path-53" d="M442.16 229.14 C442.16 237.883 435.073 244.97 426.33 244.97 417.587 244.97 410.5 237.883 410.5 229.14 410.5 220.397 417.587 213.31 426.33 213.31 435.073 213.31 442.16 220.397 442.16 229.14 Z" fill="#fdc2cc" fill-opacity="1" stroke="none"/>
 <path id="Path-54" d="M448.86 222.06 C447.55 225.34 443.64 226.58 440.21 227.43 435.31 228.63 430.03 229.81 425.34 227.95 424.732 227.609 424.031 227.472 423.34 227.56 422.783 227.783 422.318 228.189 422.02 228.71 416.85 236.07 417.69 245.88 416.35 254.78 415.93 257.55 415.22 260.41 413.35 262.48 409.71 266.48 402.84 266.33 399.49 270.58 397.28 273.38 397.26 277.27 397.28 280.84 397.28 284.647 397.247 288.457 397.18 292.27 397.12 294.77 397 297.36 395.87 299.58 393.95 303.34 389.67 305.13 385.72 306.58 383.26 307.5 380.72 308.43 378.08 308.18 375.44 307.93 372.8 306.18 372.46 303.54 371.99 299.96 375.68 297.46 378.22 294.88 382.28 290.77 383.95 284.79 384.1 279.01 384.243 276.676 383.902 274.337 383.1 272.14 382.17 269.87 380.51 267.96 379.51 265.72 376.43 258.82 380.23 250.84 384.78 244.8 389.33 238.76 394.92 232.87 395.89 225.38 395.975 223.759 396.206 222.149 396.58 220.57 397.28 218.39 398.94 212.37 400.77 210.99 403.7 208.783 407.139 207.352 410.77 206.83 413.58 206.42 416.45 206.57 419.24 206.03 422.5 205.4 425.53 203.85 428.79 203.27 435.84 202.02 443.49 210.21 446.58 216.67 447.43 218.65 449.66 220.05 448.86 222.06 Z" fill="#000000" fill-opacity="1" stroke="none"/>
 <path id="Path-55" d="M448.86 221.45 C447.55 224.73 443.64 225.97 440.21 226.82 435.31 228.02 430.03 229.2 425.34 227.34 424.732 226.999 424.031 226.862 423.34 226.95 422.783 227.173 422.318 227.579 422.02 228.1 416.85 235.46 417.69 245.27 416.35 254.17 415.93 256.94 415.22 259.8 413.35 261.87 409.71 265.87 402.84 265.72 399.49 269.97 397.28 272.77 397.26 276.66 397.28 280.23 397.28 284.037 397.247 287.847 397.18 291.66 397.12 294.16 397 296.75 395.87 298.97 393.95 302.73 389.67 304.52 385.72 305.97 383.26 306.89 380.72 307.82 378.08 307.57 375.44 307.32 372.8 305.57 372.46 302.93 371.99 299.35 375.68 296.85 378.22 294.27 382.28 290.16 383.95 284.18 384.1 278.4 384.243 276.066 383.902 273.727 383.1 271.53 382.17 269.26 380.51 267.35 379.51 265.11 376.43 258.21 380.23 250.23 384.78 244.19 389.33 238.15 394.92 232.26 395.89 224.77 395.975 223.149 396.206 221.539 396.58 219.96 397.28 217.78 398.94 211.76 400.77 210.38 403.7 208.173 407.139 206.742 410.77 206.22 413.58 205.81 416.45 205.96 419.24 205.42 422.5 204.79 425.53 203.24 428.79 202.66 435.84 201.41 443.49 209.6 446.58 216.06 447.43 218.04 449.66 219.44 448.86 221.45 Z" fill="#f569bc" fill-opacity="1" stroke="none"/>
 <path id="Path-56" d="M865.22 393.67 L861.64 393.91 861.64 385.26 866.34 384.41 C864.7 386.58 864.76 390.42 865.22 393.67 Z" fill="#000000" fill-opacity="1" stroke="none"/>
 <path id="Path-57" d="M668.51 196.42 L653.27 367.12 584.77 386.12 516.46 367.12 501.24 196.42 668.51 196.42 Z" fill="#e44d26" fill-opacity="1" stroke="none"/>
 <path id="Path-58" d="M584.87 371.6 L640.22 356.26 653.22 210.38 584.87 210.38 Z" fill="#f16529" fill-opacity="1" stroke="none"/>
 <path id="Path-59" d="M555.25 252.26 L584.87 252.26 584.87 231.32 532.37 231.32 532.87 236.94 538.02 294.64 584.88 294.64 584.88 273.7 557.17 273.7 Z M560.01 305.11 L539.01 305.11 541.94 337.99 584.78 349.93 584.88 349.93 584.88 328.08 584.79 328.08 561.47 321.78 560.01 305.11 Z" fill="#ebebeb" fill-opacity="1" stroke="none"/>
 <path id="Path-60" d="M516.81 150.02 L527.45 150.02 527.45 160.53 537.18 160.53 537.18 150.02 547.82 150.02 547.82 181.86 537.18 181.86 537.18 171.2 527.45 171.2 527.45 181.86 516.81 181.86 516.81 150.02 Z M561.81 160.58 L552.44 160.58 552.44 150.02 581.82 150.02 581.82 160.58 572.45 160.58 572.45 181.86 561.82 181.86 561.82 160.58 561.82 160.58 Z M586.49 150.02 L597.59 150.02 604.42 161.21 611.24 150.02 622.34 150.02 622.34 181.86 611.74 181.86 611.74 166.08 604.42 177.4 604.24 177.4 596.91 166.08 596.91 181.86 586.49 181.86 Z M627.63 150.02 L638.27 150.02 638.27 171.33 653.27 171.33 653.27 181.85 627.66 181.85 627.66 150.02 Z" fill="#000000" fill-opacity="1" stroke="none"/>
 <path id="Path-61" d="M584.8 294.64 L610.58 294.64 608.15 321.8 584.8 328.1 584.8 349.93 627.73 338.03 628.04 334.49 632.96 279.36 633.47 273.74 584.8 273.74 584.8 294.68 Z M584.8 252.21 L584.8 252.26 635.38 252.26 635.8 247.55 636.8 236.93 637.3 231.31 584.8 231.31 584.8 252.2 Z" fill="#ffffff" fill-opacity="1" stroke="none"/>
 <defs>
  <linearGradient id="linear-gradient" gradientUnits="userSpaceOnUse" x1="291.54" y1="691.99" x2="291.54" y2="296.78">
   <stop offset="0" stop-color="#808080" stop-opacity="0.25"/>
   <stop offset="0.54" stop-color="#808080" stop-opacity="0.12"/>
   <stop offset="1" stop-color="#808080" stop-opacity="0.1"/>
  </linearGradient>
 </defs>
 <path id="Path-62" d="M366.73 378.44 C364.78 372.73 361.97 365.44 359.73 363.78 359.595 363.672 359.447 363.581 359.29 363.51 L359.01 363.51 359.01 356.46 353.75 357.3 C352.906 354.752 352.267 352.14 351.84 349.49 352.876 350.527 354.435 350.838 355.79 350.28 355.7 350.14 355.63 349.99 355.55 349.84 L355.79 349.74 C354.962 348.279 354.525 346.629 354.52 344.95 354.564 343.418 354.809 341.898 355.25 340.43 356.19 337.18 357.78 334.14 358.67 330.88 359.239 328.775 359.508 326.6 359.47 324.42 359.497 320.726 358.654 317.078 357.01 313.77 356.602 312.818 355.963 311.982 355.15 311.34 354.41 310.93 353.649 310.56 352.87 310.23 351.566 309.352 350.443 308.231 349.56 306.93 345.824 302.382 340.823 299.044 335.19 297.34 333.723 296.795 332.134 296.671 330.6 296.98 327.07 297.98 325.78 302.31 322.92 304.6 320.39 306.6 316.92 306.83 313.76 307.51 310.516 308.062 307.53 309.627 305.23 311.98 303.735 313.689 302.92 315.889 302.94 318.16 302.765 320.315 303.723 322.406 305.47 323.68 307.449 324.982 309.907 325.33 312.17 324.63 310.405 330.727 311.263 337.285 314.537 342.723 317.811 348.161 323.205 351.987 329.42 353.28 L330.04 354.38 330.04 354.38 C331.931 357.907 333.366 361.661 334.31 365.55 329.47 368.3 324.18 370.87 320.99 371.11 320.863 372.357 320.633 373.591 320.3 374.8 319.555 377.835 318.121 380.658 316.11 383.05 311.77 387.93 292.24 424.83 292.24 424.83 292.24 424.83 291.62 426.3 290.62 428.83 278.49 430.32 258.7 432.47 253.17 431.36 L231.47 410.74 C231.47 410.74 224.47 416.09 225.07 422.59 L221.16 418.87 C221.16 418.87 200.54 434.6 233.1 444.87 L282.64 450.62 C277.92 464.86 273.52 481.43 274.88 490.45 L275.29 490.45 C276.238 490.448 277.184 490.375 278.12 490.23 L278.03 491.83 273.26 577.26 C273.26 577.26 272.17 592.99 286.82 600.05 286.82 600.05 304.73 652.68 297.67 658.65 297.67 658.65 298.51 659.09 299.92 659.71 L285.19 672.71 C285.19 672.71 274.34 675.42 268.37 674.88 266.198 674.584 264.149 675.965 263.61 678.09 263.61 678.2 263.61 678.31 263.55 678.43 L263.55 678.57 C263.55 678.68 263.55 678.8 263.55 678.92 263.55 679.04 263.55 679.01 263.55 679.05 263.55 679.09 263.55 679.25 263.55 679.35 L263.55 679.48 C263.55 679.6 263.55 679.71 263.62 679.83 L263.62 679.96 C263.653 680.087 263.693 680.21 263.74 680.33 L263.74 680.45 C263.79 680.57 263.85 680.69 263.91 680.81 L263.91 680.89 C263.98 681.01 264.05 681.13 264.13 681.25 L264.2 681.35 C264.287 681.477 264.383 681.603 264.49 681.73 L264.57 681.83 C264.68 681.96 264.8 682.08 264.93 682.21 L264.99 682.21 265.39 682.55 265.48 682.62 265.97 682.97 266.09 683.05 266.66 683.38 266.75 683.38 267.36 683.68 267.45 683.68 268.16 683.97 268.31 684.03 269.1 684.29 269.23 684.29 270.08 684.51 270.15 684.51 271.15 684.7 271.34 684.7 272.34 684.85 272.53 684.85 273.68 684.96 C275.91 685.13 278.92 685.19 282.4 685.18 L282.4 685.18 C282.4 685.18 282.4 685.27 282.4 685.31 282.4 685.35 282.4 685.51 282.4 685.61 L282.4 685.74 C282.4 685.86 282.4 685.97 282.47 686.09 L282.47 686.22 C282.503 686.347 282.543 686.47 282.59 686.59 L282.59 686.71 C282.64 686.83 282.7 686.95 282.76 687.07 L282.76 687.15 C282.83 687.27 282.9 687.39 282.98 687.51 L283.05 687.61 C283.137 687.737 283.233 687.863 283.34 687.99 L283.42 688.09 C283.53 688.22 283.65 688.34 283.78 688.47 L283.83 688.47 284.23 688.81 284.32 688.88 284.81 689.23 284.93 689.31 285.49 689.64 285.58 689.64 286.19 689.94 286.28 689.94 286.99 690.23 287.14 690.29 287.93 690.55 288.06 690.55 288.91 690.77 288.98 690.77 289.98 690.96 290.17 690.96 291.17 691.11 291.36 691.11 292.51 691.22 C306.62 692.31 351.65 689.05 351.65 689.05 L351.65 688.92 351.65 688.92 351.65 688.76 351.65 688.76 C352.1 686.66 354.26 674.45 346.58 665.42 346.81 665.18 347.03 664.93 347.24 664.67 347.24 664.67 341.24 654.36 344.53 651.11 347.82 647.86 328.64 591.93 328.64 591.93 328.64 591.93 318.33 575.65 324.3 557.2 330.27 538.75 323.76 518.68 323.76 518.68 323.76 518.68 338.01 514.46 338.27 496.93 338.27 496.4 338.27 495.85 338.27 495.3 338.568 495.344 338.869 495.364 339.17 495.36 339.37 495.374 339.57 495.374 339.77 495.36 339.77 495.36 337.06 485.59 340.31 478.54 343.56 471.49 350.62 478 357.13 449.24 361.84 428.43 365.98 404.5 367.92 392.85 368.717 388.022 368.308 383.072 366.73 378.44 Z M242.91 439.44 L237.96 434.74 C239.6 435.42 241.42 436.08 243.45 436.74 L262.1 438.93 C253.78 439.68 246.01 440.1 242.91 439.47 Z" fill-opacity="1" fill="url(#linear-gradient)" stroke="none"/>
 <path id="Path-63" d="M290.14 436.7 C290.14 436.7 251.76 442.03 243.76 440.43 L222.44 420.17 C222.44 420.17 202.18 435.63 234.17 445.76 L293.87 452.69 Z" fill="#fdc2cc" fill-opacity="1" stroke="none"/>
 <path id="Path-64" d="M290.14 436.7 C290.14 436.7 251.76 442.03 243.76 440.43 L222.44 420.17 C222.44 420.17 202.18 435.63 234.17 445.76 L293.87 452.69 Z" fill="#000000" fill-opacity="1" stroke="none"/>
 <path id="Path-65" d="M215.01 450.15 L132.07 427.15 113.59 219.85 316.68 219.85 298.18 427.12 215.01 450.15 Z" fill="#264de4" fill-opacity="1" stroke="none"/>
 <path id="Path-66" d="M282.34 413.93 L298.15 236.81 215.15 236.81 215.15 432.52 282.34 413.93 Z" fill="#2965f1" fill-opacity="1" stroke="none"/>
 <path id="Path-67" d="M156.01 313.66 L158.29 339.08 215.19 339.08 215.19 313.66 Z M151.43 262.2 L153.74 287.62 215.18 287.62 215.18 262.2 151.38 262.2 Z M215.18 379.69 L215.07 379.69 186.75 372.04 184.94 351.76 159.37 351.76 162.93 391.68 215.01 406.17 215.13 406.17 Z" fill="#ebebeb" fill-opacity="1" stroke="none"/>
 <path id="Path-68" d="M161.39 163.49 L192.18 163.49 192.18 176.37 174.26 176.37 174.26 189.25 192.18 189.25 192.18 202.13 161.39 202.13 Z M198.39 163.49 L229.18 163.49 229.18 174.69 211.22 174.69 211.22 176.93 229.14 176.93 229.14 202.69 198.34 202.69 198.34 190.93 216.26 190.93 216.26 188.69 198.34 188.69 198.34 163.49 Z M235.39 163.49 L266.18 163.49 266.18 174.69 248.17 174.69 248.17 176.93 266.09 176.93 266.09 202.69 235.29 202.69 235.29 190.93 253.21 190.93 253.21 188.69 235.29 188.69 235.29 163.49 Z" fill="#000000" fill-opacity="1" stroke="none"/>
 <path id="Path-69" d="M274.15 313.66 L278.74 262.2 215.01 262.2 215.01 287.62 250.84 287.62 248.53 313.62 215.01 313.62 215.01 339.04 246.32 339.04 243.32 372.04 215.01 379.71 215.01 406.16 267.13 391.71 267.51 387.41 273.51 320.47 274.13 313.64 Z" fill="#ffffff" fill-opacity="1" stroke="none"/>
 <path id="Path-70" d="M304.01 653.12 L285.35 669.64 C285.35 669.64 274.69 672.31 268.83 671.77 262.97 671.23 260.3 680.83 274.16 681.9 288.02 682.97 332.26 679.77 332.26 679.77 332.26 679.77 336.52 662.71 323.73 653.12 Z" fill="#47465a" fill-opacity="1" stroke="none"/>
 <path id="Path-71" d="M304.01 653.12 L285.35 669.64 C285.35 669.64 274.69 672.31 268.83 671.77 262.97 671.23 260.3 680.83 274.16 681.9 288.02 682.97 332.26 679.77 332.26 679.77 332.26 679.77 336.52 662.71 323.73 653.12 Z" fill="#000000" fill-opacity="1" stroke="none"/>
 <path id="Path-72" d="M332.92 672.4 C332.888 674.344 332.664 676.28 332.25 678.18 332.25 678.18 288.01 681.38 274.15 680.31 267.48 679.8 264.65 677.31 264.15 674.93 263.54 677.67 265.96 681.28 274.15 681.93 288.01 683 332.25 679.8 332.25 679.8 332.771 677.369 332.996 674.885 332.92 672.4 Z" fill="#ffffff" fill-opacity="1" stroke="none"/>
 <path id="Path-73" d="M325.85 350.93 C325.85 350.93 337.58 367.45 333.31 378.65 329.04 389.85 355.7 366.92 355.7 366.92 355.7 366.92 347.17 351.93 351.44 335.93 Z" fill="#fdc2cc" fill-opacity="1" stroke="none"/>
 <path id="Path-74" d="M322.65 659.52 L304.01 676.04 C304.01 676.04 293.35 678.71 287.49 678.17 281.63 677.63 278.96 687.23 292.82 688.3 306.68 689.37 350.92 686.17 350.92 686.17 350.92 686.17 355.18 669.11 342.39 659.52 Z" fill="#47465a" fill-opacity="1" stroke="none"/>
 <path id="Path-75" d="M328.01 655.79 C325.23 659.22 321.31 660.54 317.21 660.74 307.89 661.18 297.63 655.79 297.63 655.79 304.56 649.93 286.97 598.22 286.97 598.22 272.58 591.29 273.64 575.83 273.64 575.83 L278.3 491.93 279.48 470.85 294.41 461.79 306.17 470.79 317.33 479.35 C318.057 482.073 318.526 484.859 318.73 487.67 320.03 507.26 304.54 511.87 304.54 511.87 304.54 511.87 310.94 531.59 305.07 549.72 299.2 567.85 309.33 583.84 309.33 583.84 309.33 583.84 328.52 639.28 325.33 642.48 322.14 645.68 328.01 655.79 328.01 655.79 Z" fill="#565171" fill-opacity="1" stroke="none"/>
 <path id="Path-76" d="M328.01 655.79 C325.23 659.22 321.31 660.54 317.21 660.74 307.89 661.18 297.63 655.79 297.63 655.79 304.56 649.93 286.97 598.22 286.97 598.22 272.58 591.29 273.64 575.83 273.64 575.83 L278.3 491.93 279.48 470.85 294.41 461.79 306.17 470.79 317.33 479.35 C318.057 482.073 318.526 484.859 318.73 487.67 320.03 507.26 304.54 511.87 304.54 511.87 304.54 511.87 310.94 531.59 305.07 549.72 299.2 567.85 309.33 583.84 309.33 583.84 309.33 583.84 328.52 639.28 325.33 642.48 322.14 645.68 328.01 655.79 328.01 655.79 Z" fill="#000000" fill-opacity="1" stroke="none"/>
 <path id="Path-77" d="M346.64 662.18 C337.58 673.37 316.26 662.18 316.26 662.18 316.689 661.784 317.01 661.285 317.19 660.73 321.1 650.1 304 599.28 304 599.28 289.61 592.35 288 575.83 288 575.83 L284.23 490.41 283.74 479.35 306.17 470.79 313.06 468.16 336.01 485.75 C336.995 489.394 337.48 493.155 337.45 496.93 337.16 514.14 323.19 518.3 323.19 518.3 323.19 518.3 329.59 538.02 323.72 556.15 317.85 574.28 328.01 590.22 328.01 590.22 328.01 590.22 347.2 645.66 344.01 648.86 340.82 652.06 346.64 662.18 346.64 662.18 Z" fill="#565171" fill-opacity="1" stroke="none"/>
 <path id="Path-78" d="M337.45 496.93 C332.84 496.27 323.51 490.72 318.72 487.71 316.89 486.56 315.72 485.79 315.72 485.79 315.72 485.79 310.92 472.46 298.13 482.59 293.969 485.969 289.271 488.626 284.23 490.45 282.305 491.132 280.319 491.631 278.3 491.94 L279.48 470.86 294.41 461.8 306.17 470.8 313.06 468.17 336.01 485.75 C336.995 489.394 337.48 493.155 337.45 496.93 Z" fill="#000000" fill-opacity="1" stroke="none"/>
 <path id="Path-79" d="M366.3 394.64 C364.4 406.08 360.3 429.64 355.7 450.03 349.3 478.28 342.37 471.88 339.18 478.81 335.99 485.74 338.65 495.33 338.65 495.33 333.32 495.86 315.73 484.14 315.73 484.14 315.73 484.14 310.93 470.81 298.14 480.94 285.35 491.07 275.22 490.53 275.22 490.53 272.55 472.94 292.28 426.03 292.28 426.03 292.28 426.03 311.47 389.78 315.73 385.03 317.707 382.682 319.116 379.91 319.85 376.93 320.177 375.744 320.405 374.534 320.53 373.31 327.46 372.78 344.53 361.05 344.53 361.05 L357.86 358.92 357.86 365.85 C358.018 365.921 358.166 366.011 358.3 366.12 360.49 367.79 363.3 374.91 365.17 380.52 366.701 385.062 367.089 389.912 366.3 394.64 Z" fill="#e1a0a7" fill-opacity="1" stroke="none"/>
 <path id="Path-80" d="M304.01 444.7 L297.12 443.9 244.31 437.77 C212.31 427.64 232.58 412.18 232.58 412.18 L253.9 432.44 C260.05 433.67 284.18 430.8 294.99 429.44 298.23 429.02 300.28 428.74 300.28 428.74 Z" fill="#fdc2cc" fill-opacity="1" stroke="none"/>
 <path id="Path-81" d="M355.7 372.74 C355.7 372.74 341.84 361.55 321.01 397.79 300.18 434.03 295.42 428.17 295.42 428.17 295.42 428.17 299.68 444.17 297.55 447.36 297.55 447.36 311.94 446.29 317.27 447.36 322.6 448.43 355.65 406.85 355.65 406.85 355.65 406.85 372.76 383.4 355.7 372.74 Z" fill="#000000" fill-opacity="1" stroke="none"/>
 <path id="Path-82" d="M355.17 370.61 C355.17 370.61 341.31 359.42 320.52 395.66 299.73 431.9 294.93 426.04 294.93 426.04 294.93 426.04 311.45 444.16 316.78 445.23 322.11 446.3 355.16 404.72 355.16 404.72 355.16 404.72 372.23 381.27 355.17 370.61 Z" fill="#000000" fill-opacity="1" stroke="none"/>
 <path id="Path-83" d="M297.11 443.93 C297.33 439.98 295.84 433.04 294.98 429.44 298.22 429.02 300.27 428.74 300.27 428.74 L304 444.74 Z" fill="#000000" fill-opacity="1" stroke="none"/>
 <path id="Path-84" d="M355.7 371.67 C355.7 371.67 341.84 360.48 321.01 396.73 300.18 432.98 295.42 427.11 295.42 427.11 295.42 427.11 299.68 443.11 297.55 446.3 297.55 446.3 311.94 445.23 317.27 446.3 322.6 447.37 355.65 405.79 355.65 405.79 355.65 405.79 372.76 382.33 355.7 371.67 Z" fill="#e1a0a7" fill-opacity="1" stroke="none"/>
 <path id="Path-85" d="M352.01 337.02 L326.38 351.93 C327.465 353.503 328.466 355.132 329.38 356.81 330.854 357.109 332.355 357.26 333.86 357.26 340.69 357.26 343.86 350.09 347.99 345.26 347.69 341.42 350.83 341.32 352.01 337.02 Z" fill="#000000" fill-opacity="1" stroke="none"/>
 <path id="Path-86" d="M355.7 333.83 C355.7 346.196 345.676 356.22 333.31 356.22 320.944 356.22 310.92 346.196 310.92 333.83 310.92 321.464 320.944 311.44 333.31 311.44 345.676 311.44 355.7 321.464 355.7 333.83 Z" fill="#fdc2cc" fill-opacity="1" stroke="none"/>
 <path id="Path-87" d="M305.01 315.72 C307.268 313.404 310.202 311.864 313.39 311.32 316.5 310.65 319.91 310.45 322.39 308.46 325.2 306.21 326.46 301.93 329.93 300.97 331.438 300.668 332.999 300.793 334.44 301.33 339.975 303.003 344.89 306.282 348.56 310.75 349.428 312.032 350.535 313.135 351.82 314 352.585 314.324 353.333 314.688 354.06 315.09 354.856 315.723 355.482 316.544 355.88 317.48 358.378 322.527 358.954 328.31 357.5 333.75 356.63 336.96 355.07 339.94 354.14 343.14 353.21 346.34 352.98 349.96 354.67 352.82 353.03 353.66 350.96 352.6 349.93 351.07 348.9 349.54 348.59 347.66 348.05 345.89 346.988 342.415 344.988 339.301 342.27 336.89 340.59 335.41 337.59 334.41 336.42 336.32 335.97 337.06 336 338.01 335.61 338.78 334.85 340.29 332.61 340.59 331.18 339.78 329.772 338.808 328.782 337.34 328.41 335.67 326.22 328.24 322.47 323.57 314.53 326.74 311.53 327.92 308.08 328.74 305.23 326.74 301.58 324.06 302.31 318.75 305.01 315.72 Z" fill="#000000" fill-opacity="1" stroke="none"/>
 <path id="Path-88" d="M305.01 315.18 C307.268 312.864 310.202 311.324 313.39 310.78 316.5 310.11 319.91 309.91 322.39 307.92 325.2 305.67 326.46 301.39 329.93 300.43 331.438 300.128 332.999 300.253 334.44 300.79 339.975 302.463 344.89 305.742 348.56 310.21 349.428 311.492 350.535 312.595 351.82 313.46 352.585 313.784 353.333 314.148 354.06 314.55 354.856 315.183 355.482 316.004 355.88 316.94 358.378 321.987 358.954 327.77 357.5 333.21 356.63 336.42 355.07 339.4 354.14 342.6 353.21 345.8 352.98 349.42 354.67 352.28 353.03 353.12 350.96 352.06 349.93 350.53 348.9 349 348.59 347.12 348.05 345.35 346.988 341.875 344.988 338.761 342.27 336.35 340.59 334.87 337.59 333.87 336.42 335.78 335.97 336.52 336 337.47 335.61 338.24 334.85 339.75 332.61 340.05 331.18 339.24 329.772 338.268 328.782 336.8 328.41 335.13 326.22 327.7 322.47 323.03 314.53 326.2 311.53 327.38 308.08 328.2 305.23 326.2 301.58 323.53 302.31 318.22 305.01 315.18 Z" fill="#8f5a6a" fill-opacity="1" stroke="none"/>
 <path id="Path-89" d="M358.27 366.08 L347.44 366.08 C347.44 366.08 326.12 376.74 325.59 376.21 325.23 375.85 321.93 376.47 319.84 376.9 320.167 375.714 320.395 374.504 320.52 373.28 327.45 372.75 344.52 361.02 344.52 361.02 L357.85 358.89 357.85 365.82 C358 365.889 358.141 365.976 358.27 366.08 Z" fill="#000000" fill-opacity="1" stroke="none"/>
 <path id="Path-90" d="M351.57 678.79 C351.538 680.734 351.314 682.67 350.9 684.57 350.9 684.57 306.66 687.77 292.8 686.7 286.13 686.19 283.3 683.7 282.8 681.32 282.19 684.06 284.61 687.67 292.8 688.32 306.66 689.39 350.9 686.19 350.9 686.19 351.421 683.759 351.646 681.275 351.57 678.79 Z" fill="#ffffff" fill-opacity="1" stroke="none"/>
 <g id="group-2">
  <path id="Path-91" d="M293.07 480.41 C285.88 486.11 279.52 488.41 275.34 489.41 275.34 489.81 275.42 490.2 275.48 490.58 275.48 490.58 285.61 491.11 298.4 480.99 300.382 479.292 302.724 478.068 305.25 477.41 302.46 476.04 298.48 476.13 293.07 480.41 Z" fill="#000000" fill-opacity="1" stroke="none"/>
  <path id="Path-92" d="M365.41 380.47 C363.5 374.86 360.73 367.75 358.54 366.07 358.406 365.961 358.258 365.871 358.1 365.8 358.1 365.8 353.69 365.95 353.84 366.07 356.03 367.74 358.17 374.33 360.08 379.93 361.628 384.482 362.026 389.347 361.24 394.09 359.34 405.53 355.24 429.09 350.64 449.48 344.24 477.73 337.31 471.33 334.12 478.26 331.5 483.94 332.81 491.4 333.38 493.91 335.104 494.773 336.993 495.254 338.92 495.32 338.92 495.32 336.25 485.73 339.45 478.8 342.65 471.87 349.58 478.27 355.97 450.02 360.6 429.58 364.67 406.02 366.57 394.63 367.356 389.887 366.958 385.022 365.41 380.47 Z" fill="#000000" fill-opacity="1" stroke="none"/>
 </g>
 <path id="Path-93" d="M427.36 480.04 C429.193 478.546 430.528 476.53 431.19 474.26 431.69 471.96 430.71 469.21 428.51 468.37 426.05 467.43 423.42 469.13 421.43 470.86 419.44 472.59 417.15 474.55 414.54 474.18 417.269 471.706 418.499 467.982 417.78 464.37 417.667 463.634 417.356 462.943 416.88 462.37 415.51 460.91 413.04 461.54 411.4 462.69 406.2 466.35 404.75 473.41 404.72 479.77 404.2 477.48 404.64 475.09 404.62 472.77 404.6 470.45 403.96 467.77 401.98 466.55 400.752 465.89 399.373 465.563 397.98 465.6 395.64 465.51 393.04 465.75 391.44 467.46 389.44 469.58 389.97 473.15 391.7 475.46 393.43 477.77 396.05 479.26 398.47 480.88 400.41 482.033 402.064 483.609 403.31 485.49 403.457 485.751 403.577 486.026 403.67 486.31 L418.32 486.31 C421.602 484.637 424.643 482.528 427.36 480.04 Z" fill="#6c63ff" fill-opacity="1" stroke="none"/>
 <path id="Path-94" d="M454.27 667.81 C456.6 665.64 458.79 663.08 459.47 659.97 460.15 656.86 458.82 653.12 455.84 651.97 452.51 650.69 448.94 652.97 446.24 655.34 443.54 657.71 440.44 660.34 436.91 659.84 440.608 656.486 442.275 651.437 441.3 646.54 441.145 645.546 440.723 644.613 440.08 643.84 438.23 641.84 434.87 642.71 432.66 644.27 425.66 649.27 423.66 658.8 423.61 667.42 422.9 664.31 423.5 661.07 423.48 657.88 423.46 654.69 422.59 651.16 419.9 649.44 418.225 648.54 416.341 648.098 414.44 648.16 411.27 648.04 407.74 648.36 405.58 650.68 402.89 653.56 403.58 658.39 405.93 661.56 408.28 664.73 411.83 666.72 415.1 668.91 417.725 670.475 419.964 672.611 421.65 675.16 421.85 675.516 422.014 675.891 422.14 676.28 L442.01 676.28 C446.46 674.022 450.584 671.173 454.27 667.81 Z" fill="#6c63ff" fill-opacity="1" stroke="none"/>
</svg>
